<svg width="5376" height="1152" viewBox="0 0 5376 1152" fill="none" xmlns="http://www.w3.org/2000/svg">
<g clip-path="url(#clip0_440_2)">
<path d="M679.965 471.818L1114.62 343.334V233.578L674.703 458.649L679.965 471.818Z" fill="#EC1D24"/>
<path d="M996.272 0.0996094L643.12 415.007L653.015 425.161L1114.62 51.7845V0.0996094H996.272Z" fill="#EC1D24"/>
<path d="M722.174 0.0996094L597.265 386.74L610.298 392.332L823.568 0.0996094H722.174Z" fill="#EC1D24"/>
<path d="M513.804 0.0996094L544.107 378.248L558.287 378.429L598.353 0.0996094H513.804Z" fill="#EC1D24"/>
<path d="M291.999 0.0996094L491.753 390.677L504.92 385.416L391.056 0.0996094H291.999Z" fill="#EC1D24"/>
<path d="M0.460938 0.0996094V41.0615L448.118 422.27L458.272 412.368L124.975 0.0996094H0.460938Z" fill="#EC1D24"/>
<path d="M0.460938 332.513L419.93 468.135L425.521 455.102L0.460938 223.912V332.513Z" fill="#EC1D24"/>
<path d="M0.460938 554.242L411.437 521.295L411.618 507.114L0.460938 463.625V554.242Z" fill="#EC1D24"/>
<path d="M1114.62 554.242L703.647 521.295L703.467 507.114L1114.62 463.625V554.242Z" fill="#EC1D24"/>
<path d="M804.728 594.845C804.562 450.625 687.212 325.771 542.467 325.771C397.619 325.771 279.31 445.633 279.31 589.993C279.31 589.993 517.532 514.823 804.728 594.845Z" fill="#EC1D24"/>
<path d="M138.954 967.186C162.421 957.26 186.317 948.23 210.607 940.132V1015.95C186.245 1024.84 162.349 1034.69 138.954 1045.52C76.7591 1074.29 18.2186 1109.94 -35.199 1151.87H-144.757C-62.7856 1074.04 33.6954 1011.73 138.954 967.186Z" fill="#1E1B57"/>
<path d="M1209.78 1151.87H1100.22C1054.11 1115.68 1004.2 1084.18 951.43 1057.74C928.071 1046.02 904.175 1035.3 879.777 1025.63C771.258 982.522 653.21 959.517 532.474 959.517C428.505 959.517 326.471 976.574 230.886 1008.86V933.574C327.116 903.618 428.935 887.852 532.474 887.852C652.565 887.852 770.291 909.029 879.777 948.983C904.067 957.833 927.964 967.652 951.43 978.33C1046.84 1021.87 1134.43 1080.31 1209.78 1151.87Z" fill="#1E1B57"/>
<path d="M926.064 803.563V813.628L901.505 870.961C885.971 864.287 870.273 858.05 854.411 852.306C752.292 815.051 644.211 796.177 532.466 796.177C412.735 796.177 296.832 817.95 187.931 860.895L161.622 794.208C278.946 747.981 403.71 724.512 532.466 724.512C643.774 724.512 751.745 741.908 854.411 776.373C878.587 784.47 902.489 793.551 926.064 803.563Z" fill="#1E1B57"/>
<path d="M926.063 660.67V670.736L901.504 728.068C885.97 721.394 870.272 715.157 854.41 709.413C752.291 672.158 644.21 653.284 532.465 653.284C412.734 653.284 296.831 675.058 187.93 718.002L161.621 651.315C278.945 605.033 403.709 581.619 532.465 581.619C643.773 581.619 751.744 599.016 854.41 633.481C878.586 641.577 902.488 650.659 926.063 660.67Z" fill="#1E1B57"/>
<path d="M926.063 579.486V1057.73C902.707 1046.02 878.805 1035.3 854.41 1025.67V579.486H926.063Z" fill="#1E1B57"/>
<path d="M916.98 1047.02C920.025 1048.53 923.07 1050.07 926.08 1051.65V1151.88H854.427V1018.64C875.564 1027.24 896.559 1036.81 916.98 1047.02Z" fill="#1E1B57"/>
<path d="M210.614 579.488V1015.97C186.252 1024.86 162.356 1034.71 138.961 1045.53V579.488H210.614Z" fill="#1E1B57"/>
<path d="M147.487 1063.99C167.98 1054.49 189.19 1045.64 210.614 1037.65V1151.88H138.961V1068C141.791 1066.64 144.621 1065.31 147.487 1063.99Z" fill="#1E1B57"/>
<path d="M1099.19 754.879C1099.19 754.879 1055.52 724.931 1027.99 710.758V848.615C1027.99 879.302 1010.09 907.656 982.393 920.846L875.07 971.961L905.873 1036.67L1013.2 985.552C1065.71 960.541 1099.64 906.791 1099.64 848.615V755.58" fill="#1E1B57"/>
<path d="M210.591 579.542L198.538 563.405C196.842 561.135 196.872 557.932 198.801 555.858C205.348 548.819 208.907 539 207.194 528.26C205.034 514.724 194.072 503.487 180.571 501.136C159.741 497.508 141.658 513.445 141.658 533.606C141.658 542.371 145.139 550.262 150.736 556.145C152.729 558.24 152.778 561.512 151.023 563.809L139 579.542H210.591Z" fill="#1E1B57"/>
<path d="M926.05 579.542L913.997 563.405C912.301 561.135 912.331 557.932 914.26 555.858C920.807 548.819 924.366 539 922.653 528.26C920.493 514.724 909.531 503.487 896.029 501.136C875.2 497.508 857.117 513.445 857.117 533.606C857.117 542.371 860.598 550.262 866.195 556.145C868.188 558.24 868.237 561.512 866.482 563.809L854.459 579.542H926.05Z" fill="#1E1B57"/>
<path d="M577.444 612.676H512.956V941.88H577.444V612.676Z" fill="#1E1B57"/>
<path d="M388.575 776.018H324.087V931.044H388.575V776.018Z" fill="#1E1B57"/>
<path d="M765.224 776.018H700.736V931.044H765.224V776.018Z" fill="#1E1B57"/>
</g>
<g clip-path="url(#clip1_440_2)">
<path d="M1435 937.75C1438.62 938.186 1443.06 938.186 1446.68 938.186C1454.34 938.186 1462.8 938.186 1470.05 936.005C1475.69 934.26 1489.79 928.599 1495.83 928.599C1510.34 928.599 1543.37 938.622 1543.37 958.222C1543.37 976.95 1501.07 982.611 1488.58 982.611C1471.26 982.611 1435 959.967 1435 938.622V937.75ZM1580.04 1085.86C1569.56 1094.13 1559.89 1102.84 1550.22 1111.99C1540.55 1120.27 1510.74 1152.94 1501.07 1152.94C1497.44 1152.94 1493.82 1151.63 1490.59 1150.32C1474.48 1142.91 1472.06 1133.34 1471.66 1115.91C1471.26 1103.28 1470.45 1090.65 1468.44 1078.45C1476.9 1081.93 1485.36 1084.11 1494.22 1084.55C1563.92 1047.52 1667.06 939.921 1719.83 877.631C1714.19 955.169 1635.23 1041.86 1580.04 1085.86ZM1470.05 827.971C1480.12 832.333 1490.59 836.249 1501.07 837.994C1522.82 842.347 1569.16 841.91 1569.16 875.896C1569.16 887.218 1559.08 901.593 1547.81 901.593C1542.57 901.593 1528.06 895.932 1523.23 894.187C1501.88 882.865 1470.05 856.722 1470.05 827.971ZM1681.16 885.473C1681.16 891.134 1676.73 903.338 1670.28 903.338C1663.03 903.338 1656.18 900.721 1651.34 895.496C1634.83 877.195 1627.17 851.061 1611.06 831.897C1638.05 834.078 1681.16 850.189 1681.16 885.473ZM1715.8 855.85C1715.8 858.031 1715.8 860.648 1715.4 862.393C1712.18 866.745 1708.15 871.098 1702.91 871.098C1678.34 871.098 1668.26 825.363 1654.97 809.243C1678.74 812.297 1715.8 823.183 1715.8 855.85Z" fill="#99999A"/>
<path d="M1841.12 1090.21C1850.39 1090.21 1860.06 1094.12 1868.92 1094.12C1873.75 1094.12 1902.36 1084.11 1910.01 1081.93C1922.1 1078.45 1934.19 1076.27 1946.27 1074.52C1947.08 1057.98 1947.89 1040.98 1947.89 1023.99C1947.89 1000.04 1945.47 992.196 1943.45 989.143C1935 990.888 1927.34 993.069 1919.28 995.676C1903.16 990.888 1885.84 966.935 1878.59 950.815C1887.45 951.687 1895.51 953.423 1904.37 955.604C1921.3 952.996 1938.62 947.761 1954.73 942.1C1972.46 935.567 1988.17 927.289 2007.51 927.289C2018.79 927.289 2047.8 939.057 2047.8 953.859C2039.34 976.949 1996.63 972.596 1978.5 979.566C1984.14 985.663 1992.2 990.452 1993.81 1000.04C1983.34 1015.72 1982.53 1049.7 1981.73 1068.86C1992.2 1066.25 2025.24 1060.15 2034.51 1060.15C2055.45 1060.15 2099.37 1082.37 2099.37 1108.94C2099.37 1119.39 2090.91 1125.06 2081.64 1125.06C2078.01 1125.06 2066.74 1120.27 2062.3 1118.96C2036.92 1111.55 2030.48 1109.81 2003.89 1109.81C1997.04 1109.81 1990.99 1109.37 1984.55 1109.37C1953.12 1109.37 1920.49 1115.03 1891.48 1127.67C1888.26 1128.97 1876.17 1138.12 1874.56 1137.69C1860.86 1132.9 1841.12 1106.33 1841.12 1091.08V1090.21Z" fill="#99999A"/>
<path d="M2283.9 936.004C2281.49 926.418 2271.01 916.841 2269.81 912.915C2279.48 907.69 2283.1 895.496 2292.77 890.707C2334.67 901.593 2341.11 905.073 2342.73 919.012C2333.06 936.441 2324.6 971.289 2316.94 992.198C2293.17 1057.54 2260.94 1096.31 2192.85 1099.8C2236.37 1056.23 2271.42 999.167 2283.9 936.004ZM2527.64 1060.15C2527.64 1074.52 2518.79 1092.39 2503.88 1092.39C2475.27 1092.39 2445.86 1005.26 2436.2 980.876C2426.12 957.786 2412.83 933.388 2380.6 892.442C2463.99 902.901 2527.64 994.379 2527.64 1060.15ZM2459.56 858.903C2459.56 842.346 2486.15 830.588 2498.24 830.588C2523.22 830.588 2541.34 844.963 2541.34 873.278C2541.34 901.593 2526.44 918.585 2500.25 918.585C2480.11 918.585 2465.2 897.667 2465.2 877.194V873.278C2461.58 869.362 2459.56 864.127 2459.56 858.903ZM2495.41 858.03C2486.56 858.03 2483.73 867.617 2478.09 873.714C2480.92 883.728 2489.37 888.09 2498.24 888.09C2507.1 888.09 2511.53 881.556 2513.94 873.714C2511.53 861.956 2506.7 858.03 2495.41 858.03Z" fill="#99999A"/>
<path d="M2696.47 855.851C2723.06 858.904 2746.02 853.243 2764.95 876.769C2766.57 880.685 2767.37 885.474 2767.37 890.708C2767.37 903.775 2759.31 913.788 2747.63 916.842C2717.82 913.789 2665.45 885.474 2663.43 848.454C2674.31 851.934 2685.59 854.552 2696.47 855.851ZM2667.87 1064.94C2675.92 1068.87 2684.79 1071.48 2693.65 1071.92C2755.69 1039.24 2863.66 925.547 2912.82 868.055C2909.99 895.061 2902.34 920.322 2890.25 944.284C2836.26 1046.65 2731.93 1125.06 2707.34 1140.74C2706.14 1141.61 2703.32 1141.61 2702.11 1141.61C2695.66 1141.61 2678.34 1136.82 2677.13 1128.54C2671.09 1119.83 2669.88 1078.02 2667.87 1064.94Z" fill="#99999A"/>
<path d="M3044.99 989.145C3090.5 939.485 3121.13 903.775 3159 846.273C3156.98 834.515 3150.13 825.364 3148.53 815.341C3164.23 818.83 3180.75 819.267 3196.87 823.183C3204.93 828.408 3205.73 841.911 3205.73 851.061C3208.95 852.37 3212.58 852.806 3215.8 852.806C3225.48 852.806 3234.74 850.189 3244.41 850.189C3257.3 850.189 3299.2 878.94 3299.2 892.879C3292.75 906.818 3281.88 908.127 3279.86 912.479C3274.22 922.066 3270.2 934.697 3265.35 945.156C3255.69 966.501 3245.61 987.41 3233.93 1007.88C3162.62 1136.38 3121.94 1146.84 3061.1 1146.84C3055.86 1146.84 3051.03 1146.84 3046.19 1146.4C3117.9 1102.84 3198.89 982.612 3225.48 898.104C3216.21 889.835 3205.73 882.43 3196.06 875.896C3188 891.134 3179.95 905.946 3169.87 919.885C3142.07 959.532 3095.34 989.145 3048.61 989.145H3044.99Z" fill="#99999A"/>
<path d="M1563.42 623.419H1432.22V489.741H1563.42C1621.84 489.741 1651.03 445.329 1651.03 356.508V178.71H1519.4V45.0318H1651.03V0.917969H1781.8V45.0318H1824.96V178.71H1781.8V357.399C1781.8 534.746 1709.02 623.419 1563.42 623.419Z" fill="#FF4B2B"/>
<path d="M1936.28 446.518V178.71H1893.57V45.0317H1936.28V0.917969H2067.05V45.0317H2285V178.71H2067.05V268.28H2285V401.958H2067.05V446.072C2067.05 475.184 2081.58 489.74 2110.64 489.74H2285V623.419H2110.64C1994.4 623.419 1936.28 564.452 1936.28 446.518Z" fill="#FF4B2B"/>
<path d="M2799.76 45.0317V178.264C2800.64 354.725 2728.13 443.102 2582.25 443.399H2537.36L2534.31 446.518C2521.52 532.369 2478.51 591.633 2405.28 624.31L2361.69 490.186C2392.2 467.906 2407.46 433.892 2407.46 388.145V178.71H2362.12V45.0317H2407.46V0.917969H2538.23V45.0317H2799.76ZM2538.66 311.948H2580.5C2639.79 311.948 2669.43 267.686 2669.43 179.155L2538.23 178.71L2538.66 311.948Z" fill="#FF4B2B"/>
<path d="M2920.91 623.419L2920.47 624.31V623.419L2918.73 624.31L2874.71 490.186C2902.6 469.985 2917.86 440.279 2920.47 401.067V178.71H2875.57V45.0317H2920.91V0.917969H3051.67V45.0317H3296.65V622.527L3167.18 667.087L3165.89 399.73H3051.67C3049.06 510.238 3005.48 584.8 2920.91 623.419ZM3050.81 267.834H3165.89V178.264H3050.81V267.834Z" fill="#FF4B2B"/>
<path d="M3629.2 226.835L3628.77 45.033L3760.4 44.5874V624.311L3629.64 672.435L3629.2 471.918C3631.23 430.923 3616.55 396.018 3585.17 367.203L3499.3 286.105L3498.87 623.865L3368.1 624.311V42.3594H3499.74V104.742L3629.2 226.835Z" fill="#FF4B2B"/>
<path d="M3881.12 446.518V178.71H3838.4V45.0317H3881.12V0.917969H4011.88V45.0317H4273.42V178.71H4011.88V446.072C4011.88 475.184 4026.41 489.74 4055.47 489.74H4142.65V267.834H4273.42V623.419H4055.47C3939.23 623.419 3881.12 564.452 3881.12 446.518Z" fill="#FF4B2B"/>
<path d="M4787.75 319.93C4584.21 315.438 4526.21 372.719 4526.21 372.719V623.865L4395.44 624.311V406.861L4369.72 414.436L4332.67 286.105L4395.44 266.944V42.3594H4525.78V227.727L4529.7 226.39C4576.78 212.131 4619.2 208.12 4656.98 214.359L4657.41 44.5872H4787.75V319.93Z" fill="#FF4B2B"/>
<path d="M4997.38 41.9121V401.512C4997.09 461.222 5026.29 491.076 5085 491.076C5142.25 491.076 5171.16 461.222 5171.74 401.512L5172.18 273.181V44.5855H5302.94V626.537L5172.18 626.092V613.169C5146.9 620.596 5117.98 624.458 5085.44 624.755C4939.26 624.458 4866.47 550.489 4867.05 402.849V42.8033L4997.38 41.9121Z" fill="#FF4B2B"/>
<path d="M4997.4 41.9131H4832.23V125.028H4997.4V41.9131Z" fill="#FF4B2B"/>
<path d="M4572.79 334.225L4693.93 619.627L4858.46 623.419L4697.44 297.466L4572.79 334.225Z" fill="#FF4B2B"/>
</g>
<defs>
<clipPath id="clip0_440_2">
<rect width="1115" height="1151" fill="white"/>
</clipPath>
<clipPath id="clip1_440_2">
<rect width="3868" height="1151" fill="white" transform="translate(1435)"/>
</clipPath>
</defs>
</svg>
