<?xml version="1.0" encoding="UTF-8"?>
<svg id="Layer_1" data-name="Layer 1" xmlns="http://www.w3.org/2000/svg" viewBox="0 0 1013.49154 1069.47348">
  <defs>
    <style>
      .cls-1 {
        fill: #ff4b2b;
      }

      .cls-2 {
        fill: #99999a;
      }
    </style>
  </defs>
  <g>
    <path class="cls-2" d="M339.50763,594.61293c.64987.07238,1.4453.07238,2.09596.07238,1.37371,0,2.89139,0,4.19272-.36192,1.01179-.28953,3.54205-1.22894,4.62623-1.22894,2.60186,0,8.52941,1.66324,8.52941,4.91576,0,3.10776-7.59,4.04716-9.83073,4.04716-3.10854,0-9.61359-3.75763-9.61359-7.29968v-.14477ZM365.53016,619.19016c-1.8796,1.37213-3.61444,2.81822-5.34927,4.3367-1.73484,1.37371-7.08411,6.79458-8.81894,6.79458-.65066,0-1.30132-.21715-1.8796-.4343-2.89139-1.22894-3.3249-2.81822-3.39729-5.7104-.07238-2.09596-.21636-4.19193-.57828-6.21551,1.51847.57749,3.03616.93941,4.62623,1.01179,12.50576-6.1447,31.01068-23.99974,40.4795-34.33637-1.01179,12.86689-15.17922,27.25226-25.08234,34.55352ZM345.79631,576.39597c1.80722.72383,3.68603,1.37371,5.56564,1.66324,3.90318.72226,12.21623.64987,12.21623,6.28947,0,1.87882-1.80722,4.26431-3.8308,4.26431-.94019,0-3.54205-.93941-4.40987-1.22894-3.8308-1.87882-9.5412-6.21708-9.5412-10.98808ZM383.67316,585.93796c0,.93941-.79464,2.96456-1.9512,2.96456-1.30132,0-2.53026-.4343-3.39807-1.30132-2.96299-3.03695-4.3367-7.37364-7.22809-10.55378,4.84338.36192,12.57736,3.03537,12.57736,8.89054ZM389.88945,581.0222c0,.36192,0,.79621-.0716,1.08575-.57828.72226-1.30132,1.44452-2.24152,1.44452-4.40908,0-6.2163-7.58922-8.60179-10.26425,4.2651.50668,10.91491,2.31311,10.91491,7.73398Z"/>
    <path class="cls-2" d="M412.37465,619.91241c1.66245,0,3.39729.64987,4.98736.64987.86702,0,5.99993-1.66167,7.37285-2.02358,2.16913-.57749,4.33748-.93941,6.50583-1.22894.14477-2.74584.28953-5.56564.28953-8.38543,0-3.97478-.4343-5.2761-.79543-5.78279-1.51769.28953-2.89139.65145-4.33748,1.08417-2.89139-.79464-5.99915-4.76942-7.30047-7.44445,1.59007.14477,3.03616.43273,4.62623.79464,3.03616-.43273,6.14391-1.30132,9.03531-2.24073,3.18093-1.08417,5.99993-2.45788,9.46961-2.45788,2.02437,0,7.22809,1.95277,7.22809,4.40908-1.51769,3.83159-9.18007,3.10933-12.43259,4.26589,1.01179,1.01179,2.45788,1.80643,2.74663,3.39729-1.8796,2.60265-2.02358,8.24067-2.16835,11.4208,1.8796-.4343,7.80715-1.44609,9.46961-1.44609,3.75842,0,11.63717,3.68682,11.63717,8.0959,0,1.73562-1.51769,2.67503-3.18014,2.67503-.65066,0-2.67424-.79464-3.46967-1.01179-4.55384-1.22894-5.7104-1.51847-10.4814-1.51847-1.22894,0-2.31311-.07238-3.46967-.07238-5.63802,0-11.49319.93941-16.69769,3.03695-.57828.21558-2.74663,1.73405-3.03616,1.66167-2.45788-.79464-5.99915-5.20372-5.99915-7.73398v-.14477Z"/>
    <path class="cls-2" d="M491.8191,594.32339c-.43351-1.59086-2.31311-3.18014-2.52948-3.83159,1.73484-.86702,2.38471-2.89061,4.12033-3.68525,7.51683,1.80643,8.67339,2.38392,8.96292,4.69704-1.73484,2.89218-3.25252,8.67496-4.62623,12.14464-4.2651,10.84331-10.04788,17.27597-22.26412,17.85504,7.80715-7.22887,14.09583-16.69848,16.33656-27.17988ZM535.55112,614.92427c0,2.3855-1.58928,5.35006-4.26431,5.35006-5.13291,0-10.40901-14.45775-12.14306-18.50491-1.80801-3.83159-4.1935-7.88032-9.97629-14.6749,14.96286,1.73562,26.38366,16.91563,26.38366,27.82975ZM523.33567,581.52888c0-2.74741,4.77099-4.69861,6.93934-4.69861,4.48146,0,7.73398,2.3855,7.73398,7.08411s-2.67346,7.51841-7.37207,7.51841c-3.61444,0-6.28947-3.47124-6.28947-6.86853v-.64987c-.64987-.64987-1.01179-1.51847-1.01179-2.3855ZM529.76833,581.38412c-1.58928,0-2.09596,1.59086-3.10776,2.60265.50668,1.66167,2.02358,2.3855,3.61444,2.3855,1.58928,0,2.3855-1.08417,2.81822-2.3855-.43273-1.9512-1.29975-2.60265-3.3249-2.60265Z"/>
    <path class="cls-2" d="M565.8419,581.0222c4.77099.50668,8.89054-.43273,12.28783,3.47124.28953.64987.4343,1.44452.4343,2.31311,0,2.16835-1.44609,3.83001-3.54205,4.3367-5.34849-.50668-14.74571-5.20529-15.10762-11.34842,1.95277.57749,3.97635,1.01179,5.92755,1.22737ZM560.71056,615.71891c1.44452.65145,3.03537,1.08575,4.62623,1.15813,11.13127-5.42244,30.50321-24.28927,39.32294-33.82969-.50668,4.48146-1.88039,8.67339-4.04874,12.64974-9.68675,16.98644-28.40724,29.9981-32.8179,32.60075-.21558.14477-.72226.14477-.93941.14477-1.15656,0-4.26431-.79621-4.48146-2.16992-1.08417-1.44452-1.30132-8.38386-1.66167-10.55378Z"/>
    <path class="cls-2" d="M628.37308,603.14155c8.16671-8.24067,13.66153-14.16664,20.45611-23.70863-.36192-1.9512-1.59086-3.46967-1.87882-5.13291,2.81822.57907,5.78121.65145,8.67339,1.30132,1.44609.86702,1.59086,3.10776,1.59086,4.62623.57749.21715,1.22894.28953,1.80643.28953,1.73562,0,3.39729-.4343,5.13291-.4343,2.31311,0,9.82995,4.77099,9.82995,7.08411-1.15656,2.31311-3.10776,2.53026-3.46967,3.25252-1.01179,1.59086-1.73405,3.68682-2.60265,5.42244-1.73405,3.54205-3.54205,7.01173-5.63802,10.40901-12.79451,21.32313-20.09419,23.05876-31.00989,23.05876-.93941,0-1.80643,0-2.67503-.07238,12.86689-7.22887,27.39703-27.17988,32.16802-41.20333-1.66324-1.37213-3.54205-2.60107-5.27768-3.68525-1.44609,2.52869-2.89061,4.98657-4.69861,7.29968-4.98814,6.579-13.372,11.49319-21.75743,11.49319h-.64987Z"/>
  </g>
  <g>
    <path class="cls-1" d="M183.04187,542.45146h-23.54044v-22.18292h23.54044c10.48096,0,15.71954-7.36966,15.71954-22.10898v-29.50423h-23.61817v-22.18292h23.61817v-7.32036h23.4627v7.32036h7.74317v22.18292h-7.74317v29.65212c0,29.42934-13.05948,44.14401-39.18224,44.14401Z"/>
    <path class="cls-1" d="M249.94164,513.09607v-44.44073h-7.66353v-22.18292h7.66353v-7.32036h23.4627v7.32036h39.1045v22.18292h-39.1045v14.8635h39.1045v22.18292h-39.1045v7.32036c0,4.83095,2.60697,7.24642,7.8209,7.24642h31.2836v22.18292h-31.2836c-20.85574,0-31.2836-9.78513-31.2836-29.3554Z"/>
    <path class="cls-1" d="M404.86752,446.47242v22.10898c.15737,29.2824-12.85282,43.94778-39.02677,43.99707h-8.05411l-.54794.5176c-2.29413,14.24636-10.01075,24.08079-23.14987,29.50328l-7.8209-22.25686c5.47368-3.69715,8.21147-9.34147,8.21147-16.93296v-34.75419h-8.13374v-22.18292h8.13374v-7.32036h23.4627v7.32036h46.92541ZM358.01985,490.76526h7.50806c10.63643,0,15.95464-7.34501,15.95464-22.03598l-23.54044-.07394.07774,22.10992Z"/>
    <path class="cls-1" d="M426.60299,542.45146l-.07774.14789v-.14789l-.31284.14789-7.89864-22.25686c5.00538-3.35209,7.74317-8.28162,8.21147-14.78861v-36.89854h-8.056v-22.18292h8.13374v-7.32036h23.4627v7.32036h43.95441v95.83116l-23.2295,7.39431-.23321-44.36584h-20.49171c-.46831,18.33788-8.28921,30.71102-23.4627,37.11942ZM449.91022,483.4449h20.64718v-14.8635h-20.64718v14.8635Z"/>
    <path class="cls-1" d="M553.68647,476.64119l-.07774-30.16877,23.61817-.07394v96.20087l-23.4627,7.98585-.07774-33.27438c.36403-6.80276-2.26948-12.59497-7.90053-17.37662l-15.4067-13.45764-.07774,56.04884-23.4627.07394v-96.57059h23.62007v10.35203l23.2276,20.2604Z"/>
    <path class="cls-1" d="M598.88464,513.09607v-44.44073h-7.66353v-22.18292h7.66353v-7.32036h23.4627v7.32036h46.92541v22.18292h-46.92541v44.36679c0,4.83095,2.60697,7.24642,7.8209,7.24642h15.6418v-36.82365h23.4627v59.00656h-39.1045c-20.85574,0-31.2836-9.78513-31.2836-29.3554Z"/>
    <path class="cls-1" d="M761.55369,492.08962c-36.51861-.74553-46.92541,8.75996-46.92541,8.75996v41.67583l-23.4627.07394v-36.08421l-4.61481,1.25703-6.64729-21.2956,11.2621-3.17955v-37.26825h23.38497v30.76031l.70341-.22183c8.44657-2.36618,16.05892-3.03167,22.83703-1.99646l.07774-28.17231h23.38497v45.69115Z"/>
    <path class="cls-1" d="M799.16606,445.95482v59.673c-.05309,9.90837,5.18739,14.86256,15.71954,14.86256,10.2724,0,15.45979-4.95419,15.56407-14.86256l.07774-21.2956v-37.93374h23.4627v96.57059l-23.4627-.07394v-2.14435c-4.53517,1.23238-9.72446,1.87322-15.56217,1.92252-26.22704-.0493-39.28841-12.32384-39.18414-36.82365v-59.74694l23.38497-.14789Z"/>
    <rect class="cls-1" x="769.53379" y="445.95482" width="29.63474" height="13.79227"/>
    <polygon class="cls-1" points="722.98488 494.46194 744.72151 541.82225 774.23994 542.45146 745.35072 488.36198 722.98488 494.46194"/>
  </g>
</svg>