<svg width="5303" height="1152" viewBox="0 0 5303 1152" fill="none" xmlns="http://www.w3.org/2000/svg">
<g clip-path="url(#clip0_440_2)">
<path d="M679.965 471.818L1114.62 343.334V233.578L674.703 458.649L679.965 471.818Z" fill="#EC1D24"/>
<path d="M996.272 0.0996094L643.12 415.007L653.015 425.161L1114.62 51.7845V0.0996094H996.272Z" fill="#EC1D24"/>
<path d="M722.174 0.0996094L597.265 386.74L610.298 392.332L823.568 0.0996094H722.174Z" fill="#EC1D24"/>
<path d="M513.804 0.0996094L544.107 378.248L558.287 378.429L598.353 0.0996094H513.804Z" fill="#EC1D24"/>
<path d="M291.999 0.0996094L491.753 390.677L504.92 385.416L391.056 0.0996094H291.999Z" fill="#EC1D24"/>
<path d="M0.460938 0.0996094V41.0615L448.118 422.27L458.272 412.368L124.975 0.0996094H0.460938Z" fill="#EC1D24"/>
<path d="M0.460938 332.513L419.93 468.135L425.521 455.102L0.460938 223.912V332.513Z" fill="#EC1D24"/>
<path d="M0.460938 554.242L411.437 521.295L411.618 507.114L0.460938 463.625V554.242Z" fill="#EC1D24"/>
<path d="M1114.62 554.242L703.647 521.295L703.467 507.114L1114.62 463.625V554.242Z" fill="#EC1D24"/>
<path d="M804.728 594.845C804.562 450.625 687.212 325.771 542.467 325.771C397.619 325.771 279.31 445.633 279.31 589.993C279.31 589.993 517.532 514.823 804.728 594.845Z" fill="#EC1D24"/>
<path d="M138.954 967.186C162.421 957.26 186.317 948.23 210.607 940.132V1015.95C186.245 1024.84 162.349 1034.69 138.954 1045.52C76.7591 1074.29 18.2186 1109.94 -35.199 1151.87H-144.757C-62.7856 1074.04 33.6954 1011.73 138.954 967.186Z" fill="#1E1B57"/>
<path d="M1209.78 1151.87H1100.22C1054.11 1115.68 1004.2 1084.18 951.43 1057.74C928.071 1046.02 904.175 1035.3 879.777 1025.63C771.258 982.522 653.21 959.517 532.474 959.517C428.505 959.517 326.471 976.574 230.886 1008.86V933.574C327.116 903.618 428.935 887.852 532.474 887.852C652.565 887.852 770.291 909.029 879.777 948.983C904.067 957.833 927.964 967.652 951.43 978.33C1046.84 1021.87 1134.43 1080.31 1209.78 1151.87Z" fill="#1E1B57"/>
<path d="M926.064 803.563V813.628L901.505 870.961C885.971 864.287 870.273 858.05 854.411 852.306C752.292 815.051 644.211 796.177 532.466 796.177C412.735 796.177 296.832 817.95 187.931 860.895L161.622 794.208C278.946 747.981 403.71 724.512 532.466 724.512C643.774 724.512 751.745 741.908 854.411 776.373C878.587 784.47 902.489 793.551 926.064 803.563Z" fill="#1E1B57"/>
<path d="M926.063 660.67V670.736L901.504 728.068C885.97 721.394 870.272 715.157 854.41 709.413C752.291 672.158 644.21 653.284 532.465 653.284C412.734 653.284 296.831 675.058 187.93 718.002L161.621 651.315C278.945 605.033 403.709 581.619 532.465 581.619C643.773 581.619 751.744 599.016 854.41 633.481C878.586 641.577 902.488 650.659 926.063 660.67Z" fill="#1E1B57"/>
<path d="M926.063 579.486V1057.73C902.707 1046.02 878.805 1035.3 854.41 1025.67V579.486H926.063Z" fill="#1E1B57"/>
<path d="M916.98 1047.02C920.025 1048.53 923.07 1050.07 926.08 1051.65V1151.88H854.427V1018.64C875.564 1027.24 896.559 1036.81 916.98 1047.02Z" fill="#1E1B57"/>
<path d="M210.614 579.488V1015.97C186.252 1024.86 162.356 1034.71 138.961 1045.53V579.488H210.614Z" fill="#1E1B57"/>
<path d="M147.487 1063.99C167.98 1054.49 189.19 1045.64 210.614 1037.65V1151.88H138.961V1068C141.791 1066.64 144.621 1065.31 147.487 1063.99Z" fill="#1E1B57"/>
<path d="M1099.19 754.879C1099.19 754.879 1055.52 724.931 1027.99 710.758V848.615C1027.99 879.302 1010.09 907.656 982.393 920.846L875.07 971.961L905.873 1036.67L1013.2 985.552C1065.71 960.541 1099.64 906.791 1099.64 848.615V755.58" fill="#1E1B57"/>
<path d="M210.591 579.542L198.538 563.405C196.842 561.135 196.872 557.932 198.801 555.858C205.348 548.819 208.907 539 207.194 528.26C205.034 514.724 194.072 503.487 180.571 501.136C159.741 497.508 141.658 513.445 141.658 533.606C141.658 542.371 145.139 550.262 150.736 556.145C152.729 558.24 152.778 561.512 151.023 563.809L139 579.542H210.591Z" fill="#1E1B57"/>
<path d="M926.05 579.542L913.997 563.405C912.301 561.135 912.331 557.932 914.26 555.858C920.807 548.819 924.366 539 922.653 528.26C920.493 514.724 909.531 503.487 896.029 501.136C875.2 497.508 857.117 513.445 857.117 533.606C857.117 542.371 860.598 550.262 866.195 556.145C868.188 558.24 868.237 561.512 866.482 563.809L854.459 579.542H926.05Z" fill="#1E1B57"/>
<path d="M577.444 612.676H512.956V941.88H577.444V612.676Z" fill="#1E1B57"/>
<path d="M388.575 776.018H324.087V931.044H388.575V776.018Z" fill="#1E1B57"/>
<path d="M765.224 776.018H700.736V931.044H765.224V776.018Z" fill="#1E1B57"/>
</g>
<g clip-path="url(#clip1_440_2)">
<path d="M1563.42 862.419H1432.22V728.741H1563.42C1621.84 728.741 1651.03 684.329 1651.03 595.508V417.71H1519.4V284.032H1651.03V239.918H1781.8V284.032H1824.96V417.71H1781.8V596.399C1781.8 773.746 1709.02 862.419 1563.42 862.419Z" fill="#FF4B2B"/>
<path d="M1936.28 685.518V417.71H1893.57V284.032H1936.28V239.918H2067.05V284.032H2285V417.71H2067.05V507.28H2285V640.958H2067.05V685.072C2067.05 714.184 2081.58 728.74 2110.64 728.74H2285V862.419H2110.64C1994.4 862.419 1936.28 803.452 1936.28 685.518Z" fill="#FF4B2B"/>
<path d="M2799.76 284.032V417.264C2800.64 593.725 2728.13 682.102 2582.25 682.399H2537.36L2534.31 685.518C2521.52 771.369 2478.51 830.633 2405.28 863.31L2361.69 729.186C2392.2 706.906 2407.46 672.892 2407.46 627.145V417.71H2362.12V284.032H2407.46V239.918H2538.23V284.032H2799.76ZM2538.66 550.948H2580.5C2639.79 550.948 2669.43 506.686 2669.43 418.155L2538.23 417.71L2538.66 550.948Z" fill="#FF4B2B"/>
<path d="M2920.91 862.419L2920.47 863.31V862.419L2918.73 863.31L2874.71 729.186C2902.6 708.985 2917.86 679.279 2920.47 640.067V417.71H2875.57V284.032H2920.91V239.918H3051.67V284.032H3296.65V861.527L3167.18 906.087L3165.89 638.73H3051.67C3049.06 749.238 3005.48 823.8 2920.91 862.419ZM3050.81 506.834H3165.89V417.264H3050.81V506.834Z" fill="#FF4B2B"/>
<path d="M3629.2 465.835L3628.77 284.033L3760.4 283.587V863.311L3629.64 911.435L3629.2 710.918C3631.23 669.923 3616.55 635.018 3585.17 606.203L3499.3 525.105L3498.87 862.865L3368.1 863.311V281.359H3499.74V343.742L3629.2 465.835Z" fill="#FF4B2B"/>
<path d="M3881.12 685.518V417.71H3838.4V284.032H3881.12V239.918H4011.88V284.032H4273.42V417.71H4011.88V685.072C4011.88 714.184 4026.41 728.74 4055.47 728.74H4142.65V506.834H4273.42V862.419H4055.47C3939.23 862.419 3881.12 803.452 3881.12 685.518Z" fill="#FF4B2B"/>
<path d="M4787.75 558.93C4584.21 554.438 4526.21 611.719 4526.21 611.719V862.865L4395.44 863.311V645.861L4369.72 653.436L4332.67 525.105L4395.44 505.944V281.359H4525.78V466.727L4529.7 465.39C4576.78 451.131 4619.2 447.12 4656.98 453.359L4657.41 283.587H4787.75V558.93Z" fill="#FF4B2B"/>
<path d="M4997.38 280.912V640.512C4997.09 700.222 5026.29 730.076 5085 730.076C5142.25 730.076 5171.16 700.222 5171.74 640.512L5172.18 512.181V283.586H5302.94V865.537L5172.18 865.092V852.169C5146.9 859.596 5117.98 863.458 5085.44 863.755C4939.26 863.458 4866.47 789.489 4867.05 641.849V281.803L4997.38 280.912Z" fill="#FF4B2B"/>
<path d="M4997.4 280.913H4832.23V364.028H4997.4V280.913Z" fill="#FF4B2B"/>
<path d="M4572.79 573.225L4693.93 858.627L4858.46 862.419L4697.44 536.466L4572.79 573.225Z" fill="#FF4B2B"/>
</g>
<defs>
<clipPath id="clip0_440_2">
<rect width="1115" height="1151" fill="white"/>
</clipPath>
<clipPath id="clip1_440_2">
<rect width="3868" height="672" fill="white" transform="translate(1435 239)"/>
</clipPath>
</defs>
</svg>
