<svg width="694" height="191" viewBox="0 0 694 191" fill="none" xmlns="http://www.w3.org/2000/svg">
<g clip-path="url(#clip0_412_129)">
<path d="M179.508 155.613C180.158 155.685 180.953 155.685 181.604 155.685C182.977 155.685 184.495 155.685 185.796 155.323C186.808 155.034 189.339 154.094 190.423 154.094C193.025 154.094 198.952 155.758 198.952 159.01C198.952 162.118 191.362 163.057 189.121 163.057C186.013 163.057 179.508 159.3 179.508 155.758V155.613ZM205.53 180.19C203.651 181.562 201.916 183.008 200.181 184.527C198.446 185.9 193.097 191.321 191.362 191.321C190.711 191.321 190.061 191.104 189.483 190.887C186.591 189.658 186.158 188.069 186.085 185.177C186.013 183.081 185.869 180.985 185.507 178.961C187.025 179.539 188.543 179.901 190.133 179.973C202.639 173.828 221.144 155.973 230.613 145.637C229.601 158.503 215.433 172.889 205.53 180.19ZM185.796 137.396C187.604 138.12 189.483 138.77 191.362 139.059C195.265 139.781 203.578 139.709 203.578 145.349C203.578 147.227 201.771 149.613 199.748 149.613C198.807 149.613 196.206 148.673 195.338 148.384C191.507 146.505 185.796 142.167 185.796 137.396ZM223.673 146.938C223.673 147.877 222.879 149.902 221.722 149.902C220.421 149.902 219.192 149.468 218.324 148.601C215.361 145.564 213.987 141.227 211.096 138.047C215.939 138.409 223.673 141.083 223.673 146.938ZM229.89 142.022C229.89 142.384 229.89 142.818 229.818 143.108C229.24 143.83 228.517 144.552 227.577 144.552C223.167 144.552 221.36 136.963 218.975 134.288C223.24 134.795 229.89 136.601 229.89 142.022Z" fill="#99999A"/>
<path d="M252.375 180.912C254.037 180.912 255.772 181.562 257.362 181.562C258.229 181.562 263.362 179.9 264.735 179.538C266.904 178.961 269.073 178.599 271.241 178.309C271.386 175.564 271.531 172.744 271.531 169.924C271.531 165.949 271.096 164.648 270.735 164.141C269.217 164.431 267.844 164.793 266.398 165.225C263.506 164.431 260.398 160.456 259.097 157.781C260.687 157.926 262.133 158.214 263.723 158.576C266.76 158.143 269.867 157.274 272.759 156.335C275.94 155.251 278.759 153.877 282.228 153.877C284.253 153.877 289.456 155.83 289.456 158.286C287.939 162.118 280.276 161.395 277.024 162.552C278.036 163.564 279.482 164.358 279.77 165.949C277.891 168.552 277.747 174.19 277.602 177.37C279.482 176.936 285.409 175.924 287.072 175.924C290.83 175.924 298.709 179.611 298.709 184.02C298.709 185.755 297.191 186.695 295.529 186.695C294.878 186.695 292.855 185.9 292.059 185.683C287.505 184.454 286.349 184.165 281.578 184.165C280.349 184.165 279.265 184.092 278.108 184.092C272.47 184.092 266.615 185.032 261.41 187.129C260.832 187.345 258.664 188.863 258.374 188.791C255.916 187.996 252.375 183.587 252.375 181.057V180.912Z" fill="#99999A"/>
<path d="M331.819 155.323C331.385 153.732 329.506 152.143 329.29 151.492C331.024 150.625 331.674 148.601 333.41 147.806C340.927 149.613 342.083 150.19 342.373 152.503C340.638 155.396 339.12 161.178 337.747 164.648C333.481 175.491 327.699 181.924 315.482 182.503C323.29 175.274 329.578 165.805 331.819 155.323ZM375.551 175.924C375.551 178.31 373.962 181.274 371.287 181.274C366.154 181.274 360.878 166.816 359.144 162.769C357.336 158.938 354.95 154.889 349.167 148.094C364.13 149.83 375.551 165.01 375.551 175.924ZM363.336 142.529C363.336 139.781 368.107 137.83 370.275 137.83C374.756 137.83 378.009 140.216 378.009 144.914C378.009 149.613 375.335 152.433 370.637 152.433C367.022 152.433 364.347 148.961 364.347 145.564V144.914C363.698 144.264 363.336 143.396 363.336 142.529ZM369.768 142.384C368.179 142.384 367.672 143.975 366.66 144.987C367.167 146.648 368.684 147.372 370.275 147.372C371.864 147.372 372.66 146.288 373.093 144.987C372.66 143.035 371.793 142.384 369.768 142.384Z" fill="#99999A"/>
<path d="M405.842 142.022C410.613 142.529 414.732 141.59 418.129 145.494C418.419 146.143 418.564 146.938 418.564 147.807C418.564 149.975 417.118 151.637 415.022 152.143C409.673 151.637 400.276 146.938 399.914 140.795C401.867 141.372 403.89 141.807 405.842 142.022ZM400.71 176.719C402.155 177.371 403.746 177.805 405.336 177.877C416.468 172.455 435.84 153.588 444.659 144.047C444.153 148.529 442.779 152.721 440.611 156.697C430.924 173.684 412.203 186.695 407.793 189.298C407.577 189.443 407.071 189.443 406.853 189.443C405.697 189.443 402.589 188.647 402.372 187.273C401.288 185.828 401.071 178.889 400.71 176.719Z" fill="#99999A"/>
<path d="M468.373 164.141C476.54 155.901 482.035 149.975 488.829 140.433C488.467 138.482 487.238 136.963 486.95 135.3C489.769 135.879 492.732 135.951 495.624 136.601C497.07 137.468 497.215 139.709 497.215 141.227C497.792 141.445 498.444 141.517 499.021 141.517C500.757 141.517 502.418 141.083 504.154 141.083C506.467 141.083 513.984 145.854 513.984 148.167C512.827 150.48 510.876 150.697 510.514 151.419C509.502 153.01 508.78 155.106 507.911 156.842C506.177 160.384 504.369 163.853 502.273 167.251C489.479 188.574 482.179 190.309 471.264 190.309C470.324 190.309 469.457 190.309 468.589 190.237C481.455 183.008 495.986 163.057 500.757 149.034C499.093 147.662 497.215 146.433 495.479 145.349C494.033 147.877 492.588 150.335 490.78 152.648C485.792 159.227 477.408 164.141 469.023 164.141H468.373Z" fill="#99999A"/>
<path d="M23.0414 103.452H-0.499023V81.2689H23.0414C33.5224 81.2689 38.761 73.8992 38.761 59.1599V29.6556H15.1428V7.47272H38.761V0.152344H62.2236V7.47272H69.9668V29.6556H62.2236V59.3078C62.2236 88.7371 49.1642 103.452 23.0414 103.452Z" fill="#FF4B2B"/>
<path d="M89.9409 74.0963V29.6556H82.2773V7.47269H89.9409V0.152344H113.404V7.47269H152.508V29.6556H113.404V44.5191H152.508V66.702H113.404V74.0224C113.404 78.8533 116.011 81.2688 121.224 81.2688H152.508V103.452H121.224C100.369 103.452 89.9409 93.6666 89.9409 74.0963Z" fill="#FF4B2B"/>
<path d="M244.867 7.47269V29.5817C245.025 58.8641 232.014 73.5295 205.84 73.5788H197.786L197.238 74.0963C194.944 88.3427 187.228 98.1771 174.088 103.6L166.268 81.3427C171.741 77.6456 174.479 72.0013 174.479 64.4098V29.6556H166.345V7.47269H174.479V0.152344H197.942V7.47269H244.867ZM198.019 51.7655H205.528C216.164 51.7655 221.482 44.4205 221.482 29.7296L197.942 29.6556L198.019 51.7655Z" fill="#FF4B2B"/>
<path d="M266.603 103.452L266.525 103.6V103.452L266.212 103.6L258.313 81.3427C263.319 77.9907 266.057 73.0612 266.525 66.5542V29.6556H258.469V7.47269H266.603V0.152344H290.065V7.47269H334.02V103.304L310.79 110.698L310.557 66.3323H290.065C289.597 84.6702 281.776 97.0434 266.603 103.452ZM289.91 44.4452H310.557V29.5817H289.91V44.4452Z" fill="#FF4B2B"/>
<path d="M393.686 37.6418L393.608 7.47296L417.226 7.39902V103.6L393.763 111.586L393.686 78.3113C394.05 71.5086 391.416 65.7164 385.785 60.9348L370.378 47.4771L370.301 103.526L346.838 103.6V7.0293H370.458V17.3813L393.686 37.6418Z" fill="#FF4B2B"/>
<path d="M438.884 74.0963V29.6556H431.221V7.47269H438.884V0.152344H462.347V7.47269H509.272V29.6556H462.347V74.0224C462.347 78.8534 464.954 81.2688 470.168 81.2688H485.81V44.4452H509.272V103.452H470.168C449.312 103.452 438.884 93.6666 438.884 74.0963Z" fill="#FF4B2B"/>
<path d="M601.554 53.0901C565.035 52.3446 554.628 61.8501 554.628 61.8501V103.526L531.165 103.6V67.5157L526.551 68.7727L519.903 47.4771L531.165 44.2975V7.0293H554.55V37.7896L555.254 37.5678C563.7 35.2016 571.313 34.5361 578.091 35.5713L578.169 7.39899H601.554V53.0901Z" fill="#FF4B2B"/>
<path d="M639.166 6.95508V66.6281C639.113 76.5364 644.353 81.4906 654.885 81.4906C665.158 81.4906 670.345 76.5364 670.449 66.6281L670.527 45.3325V7.39871H693.99V103.969L670.527 103.895V101.751C665.992 102.983 660.803 103.624 654.965 103.674C628.738 103.624 615.677 91.3497 615.781 66.8499V7.10297L639.166 6.95508Z" fill="#FF4B2B"/>
<path d="M639.168 6.95508H609.533V20.7473H639.168V6.95508Z" fill="#FF4B2B"/>
<path d="M562.984 55.4623L584.721 102.823L614.239 103.452L585.35 49.3623L562.984 55.4623Z" fill="#FF4B2B"/>
</g>
<defs>
<clipPath id="clip0_412_129">
<rect width="694" height="191" fill="white"/>
</clipPath>
</defs>
</svg>
