<?xml version="1.0" encoding="UTF-8"?>
<svg id="Layer_1" data-name="Layer 1" xmlns="http://www.w3.org/2000/svg" viewBox="0 0 1013.49154 1069.47348">
  <defs>
    <style>
      .cls-1 {
        fill: #fff;
      }

      .cls-2 {
        fill: #0f0f0f;
      }
    </style>
  </defs>
  <rect class="cls-2" x="-8.03326" y="-15.07057" width="1030.66667" height="1089.33333"/>
  <g>
    <g>
      <path class="cls-1" d="M307.91541,775.64834c.58082.06469,1.29172.06469,1.87324.06469,1.22773,0,2.58415,0,3.74719-.32346.90428-.25877,3.16567-1.09835,4.13463-1.09835,2.32538,0,7.62305,1.4865,7.62305,4.3934,0,2.77752-6.78347,3.6171-8.78609,3.6171-2.77822,0-8.59202-3.35833-8.59202-6.524v-.12938ZM331.17272,797.61393c-1.67987,1.22633-3.23036,2.51875-4.78084,3.87587-1.55049,1.22773-6.33133,6.07257-7.88182,6.07257-.58152,0-1.16304-.19407-1.67987-.38815-2.58415-1.09835-2.97159-2.51875-3.03628-5.1036-.06469-1.87324-.19337-3.74648-.51683-5.55503,1.35712.51613,2.71353.83958,4.13463.90428,11.17687-5.49175,27.7154-21.44946,36.17804-30.68769-.90428,11.49962-13.56624,24.35636-22.41702,30.88177ZM313.53584,759.36717c1.61518.64692,3.29435,1.22773,4.97422,1.4865,3.48842.64551,10.9181.58082,10.9181,5.62113,0,1.67917-1.61518,3.81118-3.42373,3.81118-.84029,0-3.16567-.83958-3.94126-1.09835-3.42373-1.67917-8.52733-5.55644-8.52733-9.82046ZM347.38779,767.8952c0,.83958-.7102,2.64954-1.74386,2.64954-1.16304,0-2.26139-.38815-3.03699-1.16304-2.64813-2.71423-3.87587-6.5901-6.46001-9.43231,4.32871.32346,11.24086,2.71283,11.24086,7.94581ZM352.94353,763.5018c0,.32346,0,.71161-.06399.97037-.51683.64551-1.16304,1.29102-2.00333,1.29102-3.94056,0-5.55574-6.78277-7.68775-9.17354,3.81188.45284,9.75506,2.06732,9.75506,6.91215Z"/>
      <path class="cls-1" d="M373.03939,798.25943c1.4858,0,3.03628.58082,4.45739.58082.77489,0,5.36237-1.48509,6.5894-1.80855,1.93864-.51613,3.87657-.83958,5.8145-1.09835.12938-2.45406.25877-4.97422.25877-7.49437,0-3.55241-.38815-4.71545-.7109-5.16829-1.35641.25877-2.58415.58222-3.87657.96897-2.58415-.7102-5.36166-4.26261-6.5247-6.65338,1.4211.12938,2.71353.38674,4.13463.7102,2.71353-.38674,5.49105-1.16304,8.07519-2.00262,2.84291-.96897,5.36237-2.1967,8.46334-2.1967,1.80925,0,6.46001,1.74527,6.46001,3.94056-1.35641,3.42443-8.20457,2.77892-11.11147,3.81258.90428.90428,2.1967,1.61448,2.45476,3.03628-1.67987,2.32608-1.80855,7.36499-1.93793,10.2072,1.67987-.38815,6.97754-1.29242,8.46334-1.29242,3.35904,0,10.40057,3.29505,10.40057,7.23561,0,1.55119-1.35641,2.39077-2.84221,2.39077-.58152,0-2.39007-.7102-3.10097-.90428-4.06994-1.09835-5.1036-1.35712-9.36762-1.35712-1.09835,0-2.06732-.06469-3.10097-.06469-5.03891,0-10.27189.83958-14.92335,2.71423-.51683.19267-2.45476,1.54978-2.71353,1.48509-2.1967-.7102-5.36166-4.65076-5.36166-6.91215v-.12938Z"/>
      <path class="cls-1" d="M444.04187,775.38957c-.38745-1.42181-2.06732-2.84221-2.26069-3.42443,1.55049-.77489,2.1313-2.58344,3.6825-3.29364,6.71808,1.61448,7.75173,2.1306,8.0105,4.19792-1.55049,2.58485-2.9069,7.75314-4.13463,10.85411-3.81188,9.69107-8.98017,15.44018-19.89827,15.95771,6.97754-6.46072,12.59797-14.92406,14.6006-24.29167ZM483.1268,793.80134c0,2.13201-1.4204,4.78155-3.81118,4.78155-4.58747,0-9.30292-12.92143-10.85271-16.53853-1.61588-3.42443-3.74789-7.04294-8.91618-13.11551,13.37287,1.55119,23.58006,15.11813,23.58006,24.87249ZM472.20941,763.95464c0-2.45547,4.26402-4.19932,6.20195-4.19932,4.00525,0,6.91215,2.13201,6.91215,6.33133s-2.38937,6.71948-6.58869,6.71948c-3.23036,0-5.62113-3.10238-5.62113-6.13866v-.58082c-.58082-.58082-.90428-1.35712-.90428-2.13201ZM477.95851,763.82526c-1.4204,0-1.87324,1.42181-2.77752,2.32608.45284,1.48509,1.80855,2.13201,3.23036,2.13201,1.4204,0,2.13201-.96897,2.51875-2.13201-.38674-1.74386-1.16163-2.32608-2.97159-2.32608Z"/>
      <path class="cls-1" d="M510.19881,763.5018c4.26402.45284,7.94581-.38674,10.98209,3.10238.25877.58082.38815,1.29102.38815,2.06732,0,1.93793-1.29242,3.42303-3.16567,3.87587-4.78014-.45284-13.17879-4.65217-13.50225-10.14251,1.74527.51613,3.55382.90428,5.29767,1.09694ZM505.61274,794.51154c1.29102.58222,2.71283.97037,4.13463,1.03506,9.94843-4.84624,27.26186-21.70823,35.14438-30.23485-.45284,4.00525-1.68057,7.75173-3.61851,11.30555-8.65741,15.18142-25.38861,26.81042-29.33058,29.1365-.19267.12938-.64551.12938-.83958.12938-1.03366,0-3.81118-.71161-4.00525-1.93934-.96897-1.29102-1.16304-7.49297-1.48509-9.43231Z"/>
      <path class="cls-1" d="M566.08526,783.27069c7.29889-7.36499,12.20982-12.66126,18.28239-21.18929-.32346-1.74386-1.42181-3.10097-1.67917-4.58747,2.51875.51753,5.16688.58222,7.75173,1.16304,1.29242.77489,1.42181,2.77752,1.42181,4.13463.51613.19407,1.09835.25877,1.61448.25877,1.55119,0,3.03628-.38815,4.58747-.38815,2.06732,0,8.78539,4.26402,8.78539,6.33133-1.03366,2.06732-2.77752,2.26139-3.10097,2.9069-.90428,1.42181-1.54978,3.29505-2.32608,4.84624-1.54978,3.16567-3.16567,6.26664-5.03891,9.30292-11.43493,19.05728-17.95893,20.60847-27.7147,20.60847-.83958,0-1.61448,0-2.39077-.06469,11.49962-6.46072,24.48575-24.29167,28.74976-36.82495-1.4865-1.22633-3.16567-2.32468-4.71686-3.29364-1.29242,2.25998-2.58344,4.45668-4.19932,6.524-4.45809,5.8799-11.95106,10.27189-19.44543,10.27189h-.58082Z"/>
    </g>
    <g>
      <path class="cls-1" d="M168.07612,729.02969h-21.03897v-19.8257h21.03897c9.36722,0,14.04914-6.58654,14.04914-19.75962v-26.36903h-21.10844v-19.8257h21.10844v-6.54248h20.96949v6.54248h6.92036v19.8257h-6.92036v26.5012c0,26.3021-11.67175,39.45315-35.01863,39.45315Z"/>
      <path class="cls-1" d="M227.86694,702.79367v-39.71834h-6.84919v-19.8257h6.84919v-6.54248h20.96949v6.54248h34.94916v19.8257h-34.94916v13.28407h34.94916v19.8257h-34.94916v6.54248c0,4.3176,2.32994,6.4764,6.98983,6.4764h27.95933v19.8257h-27.95933c-18.63955,0-27.95933-8.74534-27.95933-26.23601Z"/>
      <path class="cls-1" d="M366.32999,643.24963v19.75962c.14064,26.17078-11.48705,39.27777-34.87968,39.32183h-7.19826l-.48971.4626c-2.05035,12.73251-8.94698,21.5219-20.6899,26.36819l-6.98983-19.89179c4.89203-3.30428,7.3389-8.34882,7.3389-15.13362v-31.06112h-7.26942v-19.8257h7.26942v-6.54248h20.96949v6.54248h41.93899ZM324.46048,682.8358h6.71024c9.50617,0,14.25926-6.56451,14.25926-19.69438l-21.03897-.06609.06947,19.76046Z"/>
      <path class="cls-1" d="M385.75579,729.02969l-.06947.13217v-.13217l-.27959.13217-7.05931-19.89179c4.47349-2.99588,6.92036-7.4016,7.3389-13.21714v-32.9776h-7.19995v-19.8257h7.26942v-6.54248h20.96949v6.54248h39.2837v85.64789l-20.76107,6.60857-.20842-39.65141h-18.31421c-.41854,16.38925-7.40837,27.44758-20.96949,33.17501ZM406.58633,676.29332h18.45315v-13.28407h-18.45315v13.28407Z"/>
      <path class="cls-1" d="M499.33504,670.21259l-.06947-26.96296,21.10844-.06609v85.97831l-20.96949,7.13725-.06947-29.73856c.32534-6.07988-2.02832-11.25659-7.061-15.53013l-13.76954-12.02759-.06947,50.09294-20.96949.06609v-86.30874h21.11014v9.25199l20.75938,18.10748Z"/>
      <path class="cls-1" d="M539.73034,702.79367v-39.71834h-6.84919v-19.8257h6.84919v-6.54248h20.96949v6.54248h41.93899v19.8257h-41.93899v39.65225c0,4.3176,2.32994,6.4764,6.98983,6.4764h13.97966v-32.91067h20.96949v52.73637h-34.94916c-18.63955,0-27.95933-8.74534-27.95933-26.23601Z"/>
      <path class="cls-1" d="M685.11374,684.01943c-32.63804-.66631-41.93899,7.8291-41.93899,7.8291v37.24724l-20.96949.06609v-32.24981l-4.12442,1.12346-5.94093-19.03268,10.06536-2.84168v-33.30803h20.90002v27.49164l.62866-.19826c7.54902-2.11474,14.35245-2.70951,20.41031-1.78431l.06947-25.17864h20.90002v40.83589Z"/>
      <path class="cls-1" d="M718.72933,642.78703v53.33199c-.04745,8.85548,4.63616,13.28322,14.04914,13.28322,9.18083,0,13.81699-4.42774,13.91019-13.28322l.06947-19.03268v-33.9028h20.96949v86.30874l-20.96949-.06609v-1.91648c-4.05325,1.10143-8.69111,1.67417-13.90849,1.71823-23.44008-.04406-35.11352-11.01428-35.02033-32.91067v-53.39808l20.90002-.13217Z"/>
      <rect class="cls-1" x="692.24586" y="642.78703" width="26.48568" height="12.32667"/>
      <polygon class="cls-1" points="650.64336 686.13966 670.0702 728.46734 696.45192 729.02969 670.63255 680.6879 650.64336 686.13966"/>
    </g>
    <g>
      <g>
        <g>
          <polygon class="cls-1" points="502.5526 393.021 635.70091 353.66954 635.70091 320.05426 500.94063 388.98753 502.5526 393.021"/>
          <polygon class="cls-1" points="599.44651 248.54566 491.26598 375.62109 494.29711 378.7309 635.70091 264.37542 635.70091 248.54566 599.44651 248.54566"/>
          <polygon class="cls-1" points="515.48237 248.54566 477.21903 366.96368 481.21138 368.6763 546.54218 248.54566 515.48237 248.54566"/>
          <polygon class="cls-1" points="451.65224 248.54566 460.93489 364.36283 465.27884 364.41813 477.5522 248.54566 451.65224 248.54566"/>
          <polygon class="cls-1" points="383.70713 248.54566 444.89743 368.16946 448.93089 366.5582 414.05099 248.54566 383.70713 248.54566"/>
          <polygon class="cls-1" points="294.40095 248.54566 294.40095 261.09123 431.53099 377.84553 434.64151 374.81298 332.54308 248.54566 294.40095 248.54566"/>
          <polygon class="cls-1" points="294.40095 350.35487 422.89626 391.89248 424.60888 387.90084 294.40095 317.09331 294.40095 350.35487"/>
          <polygon class="cls-1" points="294.40095 418.26525 420.29471 408.17449 420.35 403.83125 294.40095 390.5116 294.40095 418.26525"/>
          <polygon class="cls-1" points="635.70091 418.26525 509.80716 408.17449 509.75187 403.83125 635.70091 390.5116 635.70091 418.26525"/>
        </g>
        <path class="cls-1" d="M540.77074,430.70085c-.05079-44.17088-35.99848-82.4107-80.33807-82.4107-44.37083,0-80.61252,36.71089-80.61252,80.92468,0,0,72.9743-23.02267,160.95058,1.48602Z"/>
      </g>
      <g>
        <g>
          <path d="M555.9944,604.61518c-1.82668,0-3.30808-1.48083-3.30808-3.30752v-38.4817c-.00228-.05812-.00456-.11623-.00456-.17435v-136.65479c0-.89226.35326-1.70133.92759-2.29617l2.73034-3.57246c-1.83238-2.34232-2.82948-5.20257-2.82948-8.18304,0-7.39505,6.01677-13.41068,13.41239-13.41068.79084,0,1.59308.06951,2.38392.2074,5.50626.95892,9.96984,5.50056,10.85298,11.04499.58572,3.6659-.3487,7.32724-2.57422,10.23193l2.84885,3.81518c.50596.58003.81363,1.33611.81363,2.16285v144.43557c.00228.05812.00456.11623.00456.17435v30.70092c0,1.82668-1.4814,3.30752-3.30808,3.30752h-21.94982Z"/>
          <path d="M577.93909,570.60411v-144.60757h-.01709l-3.67943-4.92495c-.51935-.69526-.51009-1.67612.08076-2.31141,2.00531-2.15573,3.09585-5.16326,2.5708-8.45254-.6615-4.14593-4.01944-7.58734-8.1554-8.30753-6.38057-1.11105-11.92002,3.77017-11.92002,9.94477,0,2.68447,1.06647,5.10144,2.78091,6.90305.61051.6417.62561,1.64379.08774,2.34745l-3.6696,4.80117h-.02792v136.65522c.00171.00071.00342.00135.00513.00207v38.65363h21.94954v-30.70064c-.00185-.00093-.0037-.00178-.00541-.00271Z"/>
          <path d="M336.82778,572.04199c-.62219,0-1.24096-.17492-1.7811-.52077-.95152-.60794-1.52698-1.65803-1.52698-2.78675v-142.73709c0-.88314.34642-1.68538.91049-2.27851l2.74401-3.59069c-1.83238-2.34289-2.82834-5.20314-2.82834-8.18304,0-7.39505,6.01677-13.41068,13.41125-13.41068.79084,0,1.59308.06951,2.38392.2074,5.50512.95835,9.9687,5.49999,10.85412,11.04442.58572,3.66647-.3487,7.32781-2.57536,10.23307l2.85113,3.81461c.50596.58003.81363,1.33611.81363,2.16342v133.68287c0,1.38967-.86947,2.6312-2.17424,3.10753-7.35687,2.68305-14.65563,5.69371-21.69456,8.94881-.441.20455-.91505.3054-1.38796.3054Z"/>
          <path d="M355.07752,421.07159c-.51935-.69526-.51023-1.67612.08091-2.31141,2.00516-2.15573,3.0957-5.16326,2.5708-8.45254-.66179-4.14593-4.01944-7.58734-8.15555-8.30753-6.38071-1.11105-11.92002,3.77017-11.92002,9.94477,0,2.68447,1.06647,5.10144,2.78091,6.90305.61065.6417.62561,1.64379.08774,2.34745l-3.67032,4.80216h-.0245v142.73702c7.16657-3.31435,14.48655-6.33242,21.94939-9.05414v-133.68287h-.01923l-3.68014-4.92595Z"/>
        </g>
        <path class="cls-1" d="M336.82526,544.73913c7.18848-3.04001,14.50859-5.80566,21.94941-8.28589v23.22245c-7.46279,2.7217-14.78289,5.73975-21.94941,9.05413-19.05207,8.81272-36.9847,19.7325-53.34802,32.57291h-33.56066c25.11013-23.83702,54.665-42.92205,86.90868-56.5636Z"/>
        <path class="cls-1" d="M664.8482,601.30273h-33.56066c-14.12444-11.08442-29.41219-20.73123-45.57791-28.8305-7.15553-3.58875-14.47564-6.87018-21.94941-9.83336-33.24235-13.2026-69.40402-20.24834-106.38878-20.24834-31.84861,0-63.10455,5.22397-92.38505,15.11219v-23.05786c29.47804-9.17484,60.66813-14.00373,92.38505-14.00373,36.78723,0,72.85009,6.48609,106.38878,18.72284,7.44081,2.71079,14.76099,5.71784,21.94941,8.98829,29.22564,13.33429,56.05881,31.23403,79.13857,53.15048Z"/>
        <path class="cls-1" d="M577.93908,494.62581v3.08289l-7.52305,17.55948c-4.75841-2.04418-9.56713-3.9543-14.42617-5.71357-31.28187-11.41026-64.39009-17.19082-98.62088-17.19082-36.67708,0-72.18128,6.66863-105.54077,19.82139l-8.05923-20.42455c35.93975-14.15814,74.15828-21.34606,113.6-21.34606,34.09672,0,67.1714,5.32813,98.62088,15.88386,7.40575,2.47983,14.72775,5.26115,21.94923,8.32737Z"/>
        <path class="cls-1" d="M577.93908,450.86132v3.08289l-7.52305,17.55938c-4.75841-2.04408-9.56713-3.95419-14.42617-5.71347-31.28187-11.41026-64.39009-17.19082-98.62088-17.19082-36.67708,0-72.18128,6.66863-105.54077,19.82139l-8.05923-20.42455c35.93975-14.17491,74.15828-21.34606,113.6-21.34606,34.09672,0,67.1714,5.32813,98.62088,15.88386,7.40575,2.47973,14.72775,5.26115,21.94923,8.32737Z"/>
        <path class="cls-1" d="M339.43931,574.38652c6.2775-2.90832,12.77471-5.61904,19.33756-8.06638v34.98729h-21.94941v-25.69175c.86704-.41704,1.73382-.8231,2.61185-1.22916Z"/>
        <path class="cls-1" d="M630.97377,479.71479s-13.37818-9.17208-21.81251-13.51306v42.22216c0,9.3987-5.48306,18.08254-13.96703,22.1225l-32.87588,15.65503,9.43567,19.8177,32.87588-15.65503c16.08694-7.66032,26.48076-24.12238,26.48076-41.9402v-28.49439"/>
        <g>
          <path class="cls-1" d="M577.93909,570.60411v-144.60757h-.01709l-3.67943-4.92495c-.51935-.69526-.51009-1.67612.08076-2.31141,2.00531-2.15573,3.09585-5.16326,2.5708-8.45254-.6615-4.14593-4.01944-7.58734-8.1554-8.30753-6.38057-1.11105-11.92002,3.77017-11.92002,9.94477,0,2.68447,1.06647,5.10144,2.78091,6.90305.61051.6417.62561,1.64379.08774,2.34745l-3.6696,4.80117h-.02792v136.65522c.00171.00071.00342.00135.00513.00207v38.65363h21.94954v-30.70064c-.00185-.00093-.0037-.00178-.00541-.00271Z"/>
          <path class="cls-1" d="M355.07752,421.07159c-.51935-.69526-.51023-1.67612.08091-2.31141,2.00516-2.15573,3.0957-5.16326,2.5708-8.45254-.66179-4.14593-4.01944-7.58734-8.15555-8.30753-6.38071-1.11105-11.92002,3.77017-11.92002,9.94477,0,2.68447,1.06647,5.10144,2.78091,6.90305.61065.6417.62561,1.64379.08774,2.34745l-3.67032,4.80216h-.0245v142.73702c7.16657-3.31435,14.48655-6.33242,21.94939-9.05414v-133.68287h-.01923l-3.68014-4.92595Z"/>
        </g>
        <rect class="cls-1" x="451.39285" y="436.16209" width="19.75447" height="100.82688"/>
        <rect class="cls-1" x="393.53665" y="486.18974" width="19.75447" height="47.4806"/>
        <rect class="cls-1" x="508.91465" y="486.18974" width="19.75447" height="47.4806"/>
      </g>
    </g>
  </g>
</svg>