<svg width="526" height="474" viewBox="0 0 526 474" fill="none" xmlns="http://www.w3.org/2000/svg">
<path d="M136.336 446.689C136.828 446.744 137.431 446.744 137.923 446.744C138.964 446.744 140.113 446.744 141.099 446.47C141.865 446.251 143.782 445.539 144.603 445.539C146.573 445.539 151.063 446.799 151.063 449.262C151.063 451.616 145.314 452.328 143.617 452.328C141.263 452.328 136.336 449.482 136.336 446.799V446.689ZM156.045 465.304C154.622 466.343 153.308 467.438 151.994 468.588C150.68 469.629 146.628 473.734 145.314 473.734C144.821 473.734 144.329 473.57 143.891 473.405C141.701 472.475 141.372 471.271 141.318 469.081C141.263 467.493 141.154 465.906 140.88 464.373C142.03 464.81 143.179 465.084 144.383 465.139C153.855 460.485 167.871 446.962 175.042 439.133C174.276 448.879 163.546 459.774 156.045 465.304ZM141.099 432.892C142.468 433.44 143.891 433.932 145.314 434.152C148.271 434.699 154.567 434.644 154.567 438.915C154.567 440.338 153.198 442.145 151.665 442.145C150.953 442.145 148.983 441.433 148.325 441.214C145.424 439.791 141.099 436.505 141.099 432.892ZM169.786 440.119C169.786 440.83 169.185 442.364 168.309 442.364C167.323 442.364 166.392 442.035 165.735 441.379C163.491 439.078 162.45 435.794 160.26 433.385C163.929 433.659 169.786 435.684 169.786 440.119ZM174.495 436.396C174.495 436.67 174.495 436.999 174.44 437.218C174.002 437.765 173.455 438.312 172.743 438.312C169.403 438.312 168.035 432.564 166.228 430.538C169.458 430.922 174.495 432.29 174.495 436.396Z" fill="white"/>
<path d="M191.522 465.851C192.782 465.851 194.096 466.343 195.3 466.343C195.956 466.343 199.844 465.085 200.884 464.811C202.527 464.373 204.169 464.099 205.811 463.88C205.921 461.8 206.031 459.665 206.031 457.529C206.031 454.518 205.702 453.533 205.428 453.149C204.279 453.368 203.238 453.642 202.143 453.97C199.953 453.368 197.599 450.358 196.614 448.332C197.818 448.441 198.913 448.66 200.118 448.934C202.417 448.606 204.771 447.948 206.961 447.237C209.37 446.415 211.505 445.375 214.133 445.375C215.666 445.375 219.608 446.854 219.608 448.714C218.458 451.616 212.655 451.069 210.191 451.945C210.958 452.712 212.053 453.314 212.271 454.518C210.848 456.49 210.739 460.76 210.629 463.168C212.053 462.839 216.542 462.073 217.801 462.073C220.648 462.073 226.615 464.866 226.615 468.205C226.615 469.519 225.466 470.231 224.207 470.231C223.714 470.231 222.181 469.629 221.579 469.465C218.13 468.534 217.254 468.315 213.64 468.315C212.709 468.315 211.888 468.26 211.012 468.26C206.742 468.26 202.308 468.971 198.366 470.56C197.928 470.723 196.285 471.873 196.066 471.818C194.205 471.217 191.522 467.877 191.522 465.961V465.851Z" fill="white"/>
<path d="M251.695 446.469C251.367 445.264 249.943 444.06 249.78 443.567C251.094 442.91 251.586 441.378 252.9 440.776C258.593 442.144 259.469 442.581 259.689 444.333C258.375 446.524 257.225 450.903 256.185 453.531C252.955 461.744 248.575 466.616 239.322 467.055C245.235 461.579 249.998 454.407 251.695 446.469ZM284.818 462.072C284.818 463.878 283.614 466.124 281.588 466.124C277.7 466.124 273.704 455.174 272.391 452.108C271.021 449.206 269.215 446.14 264.835 440.994C276.168 442.308 284.818 453.805 284.818 462.072ZM275.566 436.778C275.566 434.698 279.179 433.22 280.822 433.22C284.216 433.22 286.679 435.027 286.679 438.585C286.679 442.144 284.654 444.28 281.096 444.28C278.358 444.28 276.332 441.65 276.332 439.077V438.585C275.84 438.093 275.566 437.435 275.566 436.778ZM280.438 436.669C279.234 436.669 278.85 437.874 278.084 438.64C278.468 439.899 279.617 440.447 280.822 440.447C282.025 440.447 282.628 439.626 282.956 438.64C282.628 437.162 281.972 436.669 280.438 436.669Z" fill="white"/>
<path d="M307.757 436.397C311.371 436.781 314.491 436.07 317.064 439.026C317.283 439.519 317.393 440.121 317.393 440.778C317.393 442.421 316.297 443.679 314.71 444.063C310.659 443.679 303.542 440.121 303.268 435.468C304.747 435.905 306.279 436.234 307.757 436.397ZM303.871 462.676C304.965 463.17 306.17 463.499 307.374 463.553C315.805 459.447 330.477 445.157 337.157 437.931C336.773 441.325 335.733 444.5 334.091 447.512C326.754 460.377 312.575 470.232 309.235 472.203C309.072 472.313 308.688 472.313 308.523 472.313C307.647 472.313 305.294 471.71 305.129 470.67C304.308 469.576 304.144 464.32 303.871 462.676Z" fill="white"/>
<path d="M355.119 453.149C361.305 446.908 365.466 442.419 370.612 435.192C370.338 433.714 369.407 432.564 369.189 431.305C371.324 431.743 373.568 431.798 375.758 432.29C376.854 432.947 376.963 434.644 376.963 435.794C377.401 435.959 377.894 436.013 378.332 436.013C379.646 436.013 380.905 435.684 382.219 435.684C383.971 435.684 389.664 439.298 389.664 441.05C388.788 442.802 387.311 442.966 387.036 443.513C386.27 444.718 385.723 446.306 385.065 447.62C383.752 450.303 382.383 452.931 380.795 455.504C371.105 471.654 365.576 472.968 357.308 472.968C356.597 472.968 355.94 472.968 355.282 472.914C365.028 467.438 376.033 452.328 379.646 441.707C378.386 440.667 376.963 439.737 375.649 438.915C374.554 440.831 373.46 442.692 372.09 444.444C368.312 449.427 361.962 453.149 355.611 453.149H355.119Z" fill="white"/>
<path d="M17.8293 407.183H0V390.382H17.8293C25.7675 390.382 29.7351 384.8 29.7351 373.637V351.291H11.8469V334.49H29.7351V328.945H47.5055V334.49H53.3701V351.291H47.5055V373.749C47.5055 396.038 37.6144 407.183 17.8293 407.183Z" fill="white"/>
<path d="M68.4977 384.95V351.291H62.6934V334.49H68.4977V328.945H86.2681V334.49H115.885V351.291H86.2681V362.548H115.885V379.349H86.2681V384.894C86.2681 388.553 88.2425 390.382 92.1915 390.382H115.885V407.183H92.1915C76.3956 407.183 68.4977 399.772 68.4977 384.95Z" fill="white"/>
<path d="M185.837 334.49V351.235C185.956 373.413 176.103 384.52 156.279 384.558H150.179L149.764 384.95C148.026 395.74 142.182 403.188 132.23 407.295L126.307 390.438C130.452 387.638 132.526 383.363 132.526 377.613V351.291H126.366V334.49H132.526V328.945H150.296V334.49H185.837ZM150.355 368.037H156.042C164.098 368.037 168.126 362.474 168.126 351.347L150.296 351.291L150.355 368.037Z" fill="white"/>
<path d="M202.3 407.183L202.241 407.295V407.183L202.004 407.295L196.021 390.438C199.813 387.899 201.886 384.166 202.241 379.237V351.291H196.139V334.49H202.3V328.945H220.07V334.49H253.361V407.071L235.767 412.672L235.59 379.069H220.07C219.715 392.958 213.792 402.33 202.3 407.183ZM219.952 362.492H235.59V351.235H219.952V362.492Z" fill="white"/>
<path d="M298.552 357.338L298.493 334.488L316.382 334.432V407.294L298.611 413.342L298.552 388.141C298.828 382.988 296.833 378.601 292.568 374.98L280.9 364.787L280.841 407.238L263.07 407.294V334.152H280.96V341.993L298.552 357.338Z" fill="white"/>
<path d="M332.783 384.95V351.291H326.979V334.49H332.783V328.945H350.553V334.49H386.094V351.291H350.553V384.894C350.553 388.553 352.528 390.382 356.477 390.382H368.324V362.492H386.094V407.183H356.477C340.681 407.183 332.783 399.772 332.783 384.95Z" fill="white"/>
<path d="M455.989 369.038C428.33 368.474 420.448 375.673 420.448 375.673V407.238L402.677 407.294V379.964L399.182 380.916L394.147 364.787L402.677 362.379V334.152H420.389V357.45L420.922 357.282C427.319 355.49 433.084 354.986 438.218 355.77L438.277 334.432H455.989V369.038Z" fill="white"/>
<path d="M484.477 334.099V379.294C484.436 386.799 488.406 390.551 496.382 390.551C504.163 390.551 508.092 386.799 508.171 379.294L508.229 363.165V334.435H526V407.576L508.229 407.52V405.896C504.795 406.829 500.864 407.315 496.443 407.352C476.579 407.315 466.686 398.018 466.765 379.462V334.211L484.477 334.099Z" fill="white"/>
<path d="M484.476 334.099H462.031V344.545H484.476V334.099Z" fill="white"/>
<path d="M426.778 370.836L443.241 406.706L465.598 407.183L443.718 366.216L426.778 370.836Z" fill="white"/>
<path d="M301.279 122.434L414.114 89.0856V60.5986L299.913 119.016L301.279 122.434Z" fill="white"/>
<path d="M383.39 0L291.714 107.689L294.283 110.324L414.114 13.4148V0H383.39Z" fill="white"/>
<path d="M312.237 0L279.812 100.352L283.195 101.804L338.559 0H312.237Z" fill="white"/>
<path d="M258.144 0L266.01 98.1482L269.691 98.1951L280.092 0H258.144Z" fill="white"/>
<path d="M200.564 0L252.42 101.374L255.838 100.009L226.279 0H200.564Z" fill="white"/>
<path d="M124.882 0V10.6316L241.091 109.574L243.727 107.004L157.205 0H124.882Z" fill="white"/>
<path d="M124.882 86.277L233.774 121.478L235.225 118.095L124.882 58.0898V86.277Z" fill="white"/>
<path d="M124.882 143.826L231.569 135.275L231.616 131.594L124.882 120.307V143.826Z" fill="white"/>
<path d="M414.113 143.826L307.426 135.275L307.379 131.594L414.113 120.307V143.826Z" fill="white"/>
<path d="M333.666 154.367C333.623 116.934 303.159 84.5283 265.584 84.5283C227.982 84.5283 197.27 115.639 197.27 153.107C197.27 153.107 259.111 133.597 333.666 154.367Z" fill="white"/>
<path d="M346.566 301.748C345.018 301.748 343.763 300.493 343.763 298.945V266.334C343.761 266.285 343.759 266.235 343.759 266.186V150.379C343.759 149.623 344.058 148.937 344.545 148.433L346.859 145.406C345.306 143.421 344.461 140.997 344.461 138.471C344.461 132.204 349.56 127.106 355.827 127.106C356.497 127.106 357.177 127.165 357.847 127.282C362.514 128.095 366.296 131.944 367.045 136.642C367.541 139.749 366.749 142.852 364.863 145.313L367.277 148.546C367.706 149.038 367.967 149.679 367.967 150.379V272.78C367.969 272.829 367.971 272.878 367.971 272.928V298.945C367.971 300.493 366.715 301.748 365.167 301.748H346.566Z" fill="white"/>
<path d="M365.164 272.926V150.38H365.15L362.032 146.206C361.591 145.617 361.599 144.786 362.1 144.248C363.799 142.421 364.724 139.872 364.279 137.085C363.718 133.571 360.872 130.655 357.367 130.044C351.96 129.103 347.266 133.239 347.266 138.472C347.266 140.747 348.17 142.795 349.623 144.322C350.14 144.866 350.153 145.715 349.697 146.311L346.587 150.38H346.563V266.187C346.565 266.188 346.566 266.188 346.568 266.189V298.946H365.169V272.929C365.167 272.928 365.166 272.927 365.164 272.926Z" fill="white"/>
<path d="M160.839 274.144C160.311 274.144 159.787 273.996 159.329 273.703C158.523 273.187 158.035 272.297 158.035 271.341V150.38C158.035 149.631 158.329 148.951 158.807 148.449L161.132 145.406C159.579 143.42 158.735 140.996 158.735 138.471C158.735 132.204 163.834 127.106 170.101 127.106C170.771 127.106 171.451 127.165 172.121 127.282C176.786 128.094 180.569 131.943 181.319 136.642C181.815 139.749 181.023 142.852 179.137 145.314L181.553 148.546C181.981 149.038 182.242 149.679 182.242 150.38V263.668C182.242 264.846 181.505 265.898 180.4 266.301C174.165 268.575 167.98 271.127 162.015 273.885C161.641 274.058 161.239 274.144 160.839 274.144Z" fill="white"/>
<path d="M176.302 146.206C175.862 145.617 175.869 144.786 176.37 144.248C178.07 142.421 178.994 139.872 178.549 137.085C177.988 133.571 175.143 130.655 171.638 130.044C166.23 129.103 161.536 133.239 161.536 138.472C161.536 140.747 162.44 142.795 163.893 144.322C164.41 144.866 164.423 145.715 163.967 146.311L160.857 150.381H160.836V271.342C166.909 268.533 173.112 265.976 179.437 263.669V150.381H179.42L176.302 146.206Z" fill="white"/>
<path d="M160.835 251.007C166.926 248.431 173.13 246.087 179.435 243.985V263.665C173.111 265.972 166.908 268.529 160.835 271.338C144.689 278.806 129.492 288.06 115.625 298.941H87.1846C108.464 278.741 133.51 262.568 160.835 251.007Z" fill="white"/>
<path d="M438.815 298.941H410.375C398.405 289.548 385.45 281.373 371.75 274.509C365.686 271.468 359.483 268.687 353.149 266.176C324.978 254.988 294.333 249.017 262.991 249.017C236.001 249.017 209.514 253.444 184.7 261.824V242.283C209.681 234.508 236.113 230.416 262.991 230.416C294.166 230.416 324.727 235.913 353.149 246.283C359.455 248.58 365.658 251.128 371.75 253.9C396.517 265.2 419.257 280.369 438.815 298.941Z" fill="white"/>
<path d="M365.164 208.538V211.151L358.789 226.031C354.756 224.299 350.681 222.68 346.563 221.189C320.054 211.52 291.997 206.621 262.988 206.621C231.906 206.621 201.819 212.272 173.548 223.419L166.719 206.11C197.176 194.112 229.564 188.021 262.988 188.021C291.883 188.021 319.912 192.536 346.563 201.481C352.839 203.583 359.044 205.94 365.164 208.538Z" fill="white"/>
<path d="M365.164 171.451V174.064L358.789 188.944C354.756 187.212 350.681 185.593 346.563 184.102C320.054 174.433 291.997 169.534 262.988 169.534C231.906 169.534 201.819 175.186 173.548 186.332L166.719 169.023C197.176 157.011 229.564 150.934 262.988 150.934C291.883 150.934 319.912 155.449 346.563 164.394C352.839 166.496 359.044 168.853 365.164 171.451Z" fill="white"/>
<path d="M163.049 276.133C168.369 273.668 173.875 271.371 179.437 269.297V298.947H160.836V277.174C161.571 276.821 162.305 276.477 163.049 276.133Z" fill="white"/>
<path d="M410.108 195.902C410.108 195.902 398.771 188.129 391.623 184.45V220.231C391.623 228.196 386.977 235.555 379.787 238.979L351.927 252.245L359.923 269.04L387.783 255.773C401.416 249.281 410.224 235.331 410.224 220.231V196.084" fill="white"/>
<path d="M365.164 272.926V150.38H365.15L362.032 146.206C361.591 145.617 361.599 144.786 362.1 144.248C363.799 142.421 364.724 139.872 364.279 137.085C363.718 133.571 360.872 130.655 357.367 130.044C351.96 129.103 347.266 133.239 347.266 138.472C347.266 140.747 348.17 142.795 349.623 144.322C350.14 144.866 350.153 145.715 349.697 146.311L346.587 150.38H346.563V266.187C346.565 266.188 346.566 266.188 346.568 266.189V298.946H365.169V272.929C365.167 272.928 365.166 272.927 365.164 272.926Z" fill="white"/>
<path d="M176.302 146.206C175.862 145.617 175.869 144.786 176.37 144.248C178.07 142.421 178.994 139.872 178.549 137.085C177.988 133.571 175.143 130.655 171.638 130.044C166.23 129.103 161.536 133.239 161.536 138.472C161.536 140.747 162.44 142.795 163.893 144.322C164.41 144.866 164.423 145.715 163.967 146.311L160.857 150.381H160.836V271.342C166.909 268.533 173.112 265.976 179.437 263.669V150.381H179.42L176.302 146.206Z" fill="white"/>
<path d="M274.667 158.993H257.926V244.438H274.667V158.993Z" fill="white"/>
<path d="M225.634 201.39H208.894V241.627H225.634V201.39Z" fill="white"/>
<path d="M323.411 201.39H306.67V241.627H323.411V201.39Z" fill="white"/>
</svg>
