<svg width="621" height="560" viewBox="0 0 621 560" fill="none" xmlns="http://www.w3.org/2000/svg">
<path d="M160.878 527.103C161.459 527.167 162.17 527.167 162.751 527.167C163.979 527.167 165.335 527.167 166.498 526.844C167.403 526.585 169.664 525.745 170.633 525.745C172.958 525.745 178.256 527.232 178.256 530.139C178.256 532.916 171.473 533.756 169.47 533.756C166.692 533.756 160.878 530.398 160.878 527.232V527.103ZM184.135 549.068C182.455 550.295 180.905 551.587 179.354 552.944C177.804 554.172 173.023 559.017 171.473 559.017C170.891 559.017 170.31 558.823 169.793 558.628C167.209 557.53 166.821 556.11 166.756 553.525C166.692 551.652 166.563 549.778 166.24 547.97C167.597 548.486 168.953 548.809 170.374 548.874C181.551 543.382 198.09 527.425 206.552 518.186C205.648 529.686 192.986 542.543 184.135 549.068ZM166.498 510.821C168.114 511.468 169.793 512.049 171.473 512.308C174.961 512.953 182.391 512.889 182.391 517.929C182.391 519.608 180.775 521.74 178.967 521.74C178.127 521.74 175.801 520.901 175.026 520.642C171.602 518.963 166.498 515.085 166.498 510.821ZM200.35 519.349C200.35 520.189 199.64 521.999 198.606 521.999C197.443 521.999 196.345 521.611 195.569 520.836C192.921 518.122 191.694 514.246 189.109 511.404C193.438 511.727 200.35 514.117 200.35 519.349ZM205.906 514.956C205.906 515.28 205.906 515.668 205.842 515.926C205.325 516.572 204.679 517.217 203.839 517.217C199.898 517.217 198.283 510.435 196.151 508.044C199.963 508.497 205.906 510.111 205.906 514.956Z" fill="white"/>
<path d="M226.002 549.714C227.488 549.714 229.038 550.295 230.459 550.295C231.234 550.295 235.822 548.81 237.049 548.486C238.987 547.97 240.925 547.647 242.863 547.388C242.993 544.934 243.122 542.414 243.122 539.894C243.122 536.341 242.734 535.178 242.411 534.725C241.055 534.984 239.827 535.308 238.535 535.694C235.95 534.984 233.173 531.432 232.01 529.041C233.431 529.17 234.723 529.428 236.144 529.751C238.858 529.364 241.636 528.588 244.22 527.748C247.063 526.78 249.582 525.552 252.683 525.552C254.492 525.552 259.143 527.297 259.143 529.492C257.787 532.917 250.938 532.271 248.032 533.305C248.936 534.209 250.228 534.919 250.486 536.341C248.806 538.667 248.678 543.706 248.548 546.548C250.228 546.16 255.526 545.256 257.012 545.256C260.371 545.256 267.412 548.551 267.412 552.492C267.412 554.043 266.056 554.882 264.57 554.882C263.989 554.882 262.18 554.172 261.469 553.978C257.399 552.88 256.365 552.621 252.101 552.621C251.003 552.621 250.034 552.556 249.001 552.556C243.962 552.556 238.729 553.396 234.077 555.27C233.56 555.463 231.622 556.82 231.364 556.756C229.167 556.045 226.002 552.105 226.002 549.843V549.714Z" fill="white"/>
<path d="M297.005 526.844C296.617 525.422 294.938 524.002 294.744 523.42C296.295 522.645 296.875 520.836 298.427 520.126C305.145 521.741 306.178 522.257 306.437 524.324C304.887 526.909 303.53 532.077 302.303 535.178C298.491 544.869 293.322 550.618 282.404 551.136C289.382 544.675 295.002 536.212 297.005 526.844ZM336.09 545.256C336.09 547.388 334.669 550.038 332.279 550.038C327.691 550.038 322.976 537.116 321.426 533.499C319.81 530.075 317.678 526.456 312.51 520.383C325.883 521.935 336.09 535.502 336.09 545.256ZM325.172 515.409C325.172 512.954 329.436 511.21 331.374 511.21C335.38 511.21 338.287 513.342 338.287 517.541C338.287 521.741 335.897 524.261 331.698 524.261C328.467 524.261 326.077 521.158 326.077 518.122V517.541C325.496 516.961 325.172 516.184 325.172 515.409ZM330.922 515.28C329.501 515.28 329.048 516.702 328.144 517.606C328.597 519.091 329.953 519.738 331.374 519.738C332.795 519.738 333.506 518.769 333.893 517.606C333.506 515.862 332.731 515.28 330.922 515.28Z" fill="white"/>
<path d="M363.161 514.956C367.425 515.409 371.107 514.57 374.143 518.059C374.402 518.64 374.531 519.35 374.531 520.126C374.531 522.064 373.239 523.549 371.366 524.002C366.585 523.549 358.187 519.35 357.863 513.859C359.609 514.376 361.417 514.764 363.161 514.956ZM358.575 545.966C359.866 546.548 361.288 546.936 362.71 547.001C372.658 542.155 389.971 525.293 397.854 516.766C397.401 520.772 396.173 524.518 394.235 528.072C385.578 543.253 368.847 554.882 364.905 557.208C364.712 557.338 364.259 557.338 364.065 557.338C363.032 557.338 360.254 556.626 360.06 555.398C359.091 554.107 358.897 547.905 358.575 545.966Z" fill="white"/>
<path d="M419.048 534.725C426.347 527.36 431.258 522.064 437.33 513.536C437.007 511.792 435.908 510.435 435.651 508.948C438.17 509.466 440.818 509.53 443.403 510.111C444.695 510.886 444.825 512.889 444.825 514.246C445.341 514.44 445.923 514.505 446.439 514.505C447.99 514.505 449.475 514.117 451.027 514.117C453.094 514.117 459.812 518.381 459.812 520.448C458.778 522.515 457.034 522.709 456.711 523.355C455.807 524.777 455.161 526.65 454.385 528.201C452.835 531.367 451.219 534.468 449.346 537.504C437.911 556.561 431.387 558.112 421.631 558.112C420.792 558.112 420.017 558.112 419.241 558.048C430.74 551.587 443.726 533.756 447.99 521.223C446.504 519.996 444.825 518.898 443.273 517.929C441.981 520.189 440.69 522.386 439.074 524.453C434.616 530.333 427.123 534.725 419.629 534.725H419.048Z" fill="white"/>
<path d="M21.039 480.484H0V460.658H21.039C30.4062 460.658 35.0881 454.071 35.0881 440.898V414.529H13.9797V394.704H35.0881V388.161H56.0576V394.704H62.978V414.529H56.0576V441.031C56.0576 467.333 44.3859 480.484 21.039 480.484Z" fill="white"/>
<path d="M80.8297 454.248V414.529H73.9805V394.704H80.8297V388.161H101.799V394.704H136.748V414.529H101.799V427.813H136.748V447.639H101.799V454.182C101.799 458.499 104.129 460.658 108.789 460.658H136.748V480.484H108.789C90.1494 480.484 80.8297 471.738 80.8297 454.248Z" fill="white"/>
<path d="M219.293 394.704V414.463C219.434 440.634 207.806 453.741 184.414 453.785H177.215L176.726 454.248C174.675 466.98 167.779 475.77 156.036 480.616L149.046 460.724C153.938 457.42 156.385 452.375 156.385 445.59V414.529H149.115V394.704H156.385V388.161H177.354V394.704H219.293ZM177.424 434.29H184.134C193.64 434.29 198.393 427.725 198.393 414.595L177.354 414.529L177.424 434.29Z" fill="white"/>
<path d="M238.719 480.484L238.649 480.616V480.484L238.37 480.616L231.311 460.724C235.784 457.728 238.231 453.322 238.649 447.507V414.529H231.449V394.704H238.719V388.161H259.688V394.704H298.972V480.352L278.211 486.96L278.003 447.309H259.688C259.27 463.698 252.28 474.756 238.719 480.484ZM259.549 427.747H278.003V414.463H259.549V427.747Z" fill="white"/>
<path d="M352.298 421.666L352.229 394.703L373.337 394.637V480.615L352.368 487.753L352.298 458.014C352.624 451.934 350.27 446.757 345.237 442.484L331.468 430.456L331.398 480.549L310.429 480.615V394.307H331.539V403.559L352.298 421.666Z" fill="white"/>
<path d="M392.693 454.248V414.529H385.844V394.704H392.693V388.161H413.662V394.704H455.601V414.529H413.662V454.182C413.662 458.499 415.992 460.658 420.652 460.658H434.632V427.747H455.601V480.484H420.652C402.013 480.484 392.693 471.738 392.693 454.248Z" fill="white"/>
<path d="M538.076 435.473C505.438 434.807 496.137 443.302 496.137 443.302V480.549L475.168 480.615V448.366L471.043 449.489L465.103 430.456L475.168 427.615V394.307H496.068V421.798L496.697 421.6C504.246 419.485 511.049 418.89 517.107 419.816L517.176 394.637H538.076V435.473Z" fill="white"/>
<path d="M571.693 394.241V447.573C571.645 456.429 576.329 460.856 585.742 460.856C594.923 460.856 599.559 456.429 599.652 447.573L599.721 428.541V394.638H620.691V480.946L599.721 480.88V478.964C595.668 480.065 591.03 480.638 585.813 480.682C562.373 480.638 550.699 469.668 550.793 447.771V394.373L571.693 394.241Z" fill="white"/>
<path d="M571.695 394.241H545.209V406.568H571.695V394.241Z" fill="white"/>
<path d="M503.606 437.593L523.033 479.921L549.415 480.483L523.596 432.142L503.606 437.593Z" fill="white"/>
<path d="M355.516 144.476L488.665 105.124V71.5088L353.904 140.442L355.516 144.476Z" fill="white"/>
<path d="M452.41 0L344.229 127.075L347.261 130.185L488.664 15.8298V0H452.41Z" fill="white"/>
<path d="M368.446 0L330.183 118.418L334.175 120.131L399.506 0H368.446Z" fill="white"/>
<path d="M304.615 0L313.898 115.817L318.242 115.872L330.515 0H304.615Z" fill="white"/>
<path d="M236.671 0L297.861 119.624L301.895 118.013L267.015 0H236.671Z" fill="white"/>
<path d="M147.364 0V12.5456L284.494 129.3L287.605 126.267L185.506 0H147.364Z" fill="white"/>
<path d="M147.364 101.809L275.86 143.347L277.572 139.355L147.364 68.5479V101.809Z" fill="white"/>
<path d="M147.364 169.719L273.258 159.629L273.313 155.285L147.364 141.966V169.719Z" fill="white"/>
<path d="M488.664 169.719L362.77 159.629L362.715 155.285L488.664 141.966V169.719Z" fill="white"/>
<path d="M393.734 182.155C393.683 137.984 357.735 99.7441 313.396 99.7441C269.025 99.7441 232.783 136.455 232.783 180.669C232.783 180.669 305.758 157.646 393.734 182.155Z" fill="white"/>
<path d="M408.958 356.07C407.131 356.07 405.65 354.589 405.65 352.762V314.281C405.648 314.223 405.646 314.165 405.646 314.106V177.452C405.646 176.559 405.999 175.75 406.573 175.155L409.303 171.583C407.471 169.241 406.474 166.38 406.474 163.4C406.474 156.005 412.491 149.989 419.886 149.989C420.677 149.989 421.479 150.059 422.27 150.197C427.777 151.156 432.24 155.697 433.123 161.242C433.709 164.908 432.775 168.569 430.549 171.474L433.398 175.289C433.904 175.869 434.211 176.625 434.211 177.452V321.887C434.214 321.945 434.216 322.003 434.216 322.062V352.762C434.216 354.589 432.735 356.07 430.908 356.07H408.958Z" fill="black"/>
<path d="M430.902 322.059V177.452H430.885L427.206 172.527C426.686 171.832 426.696 170.851 427.287 170.215C429.292 168.06 430.382 165.052 429.857 161.763C429.196 157.617 425.838 154.176 421.702 153.455C415.321 152.344 409.782 157.226 409.782 163.4C409.782 166.085 410.848 168.502 412.563 170.303C413.173 170.945 413.189 171.947 412.651 172.651L408.981 177.452H408.953V314.107C408.955 314.108 408.957 314.108 408.958 314.109V352.763H430.908V322.062C430.906 322.061 430.904 322.06 430.902 322.059Z" fill="black"/>
<path d="M189.791 323.497C189.169 323.497 188.551 323.322 188.01 322.976C187.059 322.368 186.483 321.318 186.483 320.189V177.452C186.483 176.569 186.83 175.767 187.394 175.174L190.138 171.583C188.305 169.24 187.31 166.38 187.31 163.4C187.31 156.005 193.326 149.989 200.721 149.989C201.512 149.989 202.314 150.059 203.105 150.197C208.61 151.155 213.073 155.697 213.959 161.241C214.545 164.908 213.61 168.569 211.383 171.474L214.235 175.289C214.741 175.869 215.048 176.625 215.048 177.452V311.135C215.048 312.525 214.179 313.766 212.874 314.243C205.517 316.926 198.218 319.936 191.179 323.191C190.738 323.396 190.264 323.497 189.791 323.497Z" fill="black"/>
<path d="M208.041 172.527C207.522 171.832 207.531 170.851 208.122 170.215C210.127 168.06 211.218 165.052 210.693 161.763C210.031 157.617 206.673 154.176 202.537 153.455C196.156 152.344 190.617 157.226 190.617 163.4C190.617 166.085 191.684 168.502 193.398 170.303C194.009 170.945 194.024 171.947 193.486 172.651L189.816 177.453H189.791V320.19C196.958 316.875 204.278 313.857 211.74 311.136V177.453H211.721L208.041 172.527Z" fill="black"/>
<path d="M189.789 296.194C196.977 293.154 204.297 290.388 211.738 287.908V311.131C204.275 313.852 196.955 316.87 189.789 320.185C170.736 328.997 152.804 339.917 136.441 352.758H102.88C127.99 328.921 157.545 309.836 189.789 296.194Z" fill="white"/>
<path d="M517.811 352.757H484.25C470.126 341.673 454.838 332.026 438.672 323.927C431.517 320.338 424.197 317.056 416.723 314.093C383.481 300.891 347.319 293.845 310.334 293.845C278.486 293.845 247.23 299.069 217.949 308.957V285.899C247.427 276.724 278.617 271.896 310.334 271.896C347.121 271.896 383.184 278.382 416.723 290.618C424.164 293.329 431.484 296.336 438.672 299.607C467.898 312.941 494.731 330.841 517.811 352.757Z" fill="white"/>
<path d="M430.903 246.08V249.163L423.379 266.723C418.621 264.679 413.812 262.768 408.953 261.009C377.671 249.599 344.563 243.818 310.332 243.818C273.655 243.818 238.151 250.487 204.792 263.64L196.732 243.215C232.672 229.057 270.891 221.869 310.332 221.869C344.429 221.869 377.504 227.197 408.953 237.753C416.359 240.233 423.681 243.014 430.903 246.08Z" fill="white"/>
<path d="M430.903 202.316V205.399L423.379 222.958C418.621 220.914 413.812 219.004 408.953 217.245C377.671 205.834 344.563 200.054 310.332 200.054C273.655 200.054 238.151 206.722 204.792 219.875L196.732 199.451C232.672 185.276 270.891 178.104 310.332 178.104C344.429 178.104 377.504 183.433 408.953 193.988C416.359 196.468 423.681 199.25 430.903 202.316Z" fill="white"/>
<path d="M192.403 325.842C198.68 322.933 205.178 320.223 211.74 317.775V352.763H189.791V327.071C190.658 326.654 191.525 326.248 192.403 325.842Z" fill="white"/>
<path d="M483.937 231.169C483.937 231.169 470.558 221.997 462.124 217.656V259.878C462.124 269.277 456.641 277.961 448.157 282.001L415.281 297.656L424.717 317.474L457.593 301.819C473.68 294.158 484.074 277.696 484.074 259.878V231.384" fill="white"/>
<path d="M430.902 322.059V177.452H430.885L427.206 172.527C426.686 171.832 426.696 170.851 427.287 170.215C429.292 168.06 430.382 165.052 429.857 161.763C429.196 157.617 425.838 154.176 421.702 153.455C415.321 152.344 409.782 157.226 409.782 163.4C409.782 166.085 410.848 168.502 412.563 170.303C413.173 170.945 413.189 171.947 412.651 172.651L408.981 177.452H408.953V314.107C408.955 314.108 408.957 314.108 408.958 314.109V352.763H430.908V322.062C430.906 322.061 430.904 322.06 430.902 322.059Z" fill="white"/>
<path d="M208.041 172.527C207.522 171.832 207.531 170.851 208.122 170.215C210.127 168.06 211.218 165.052 210.693 161.763C210.031 157.617 206.673 154.176 202.537 153.455C196.156 152.344 190.617 157.226 190.617 163.4C190.617 166.085 191.684 168.502 193.398 170.303C194.009 170.945 194.024 171.947 193.486 172.651L189.816 177.453H189.791V320.19C196.958 316.875 204.278 313.857 211.74 311.136V177.453H211.721L208.041 172.527Z" fill="white"/>
<path d="M324.111 187.617H304.356V288.444H324.111V187.617Z" fill="white"/>
<path d="M266.254 237.645H246.5V285.125H266.254V237.645Z" fill="white"/>
<path d="M381.632 237.645H361.878V285.125H381.632V237.645Z" fill="white"/>
</svg>
