<svg width="1354" height="1151" viewBox="0 0 1354 1151" fill="none" xmlns="http://www.w3.org/2000/svg">
<g clip-path="url(#clip0_410_2)">
<path d="M824.965 471.818L1259.62 343.334V233.578L819.703 458.649L824.965 471.818Z" fill="#EC1D24"/>
<path d="M1141.27 0.0996094L788.12 415.007L798.015 425.161L1259.62 51.7845V0.0996094H1141.27Z" fill="#EC1D24"/>
<path d="M867.174 0.0996094L742.265 386.74L755.298 392.332L968.568 0.0996094H867.174Z" fill="#EC1D24"/>
<path d="M658.804 0.0996094L689.107 378.248L703.287 378.429L743.353 0.0996094H658.804Z" fill="#EC1D24"/>
<path d="M436.999 0.0996094L636.753 390.677L649.92 385.416L536.056 0.0996094H436.999Z" fill="#EC1D24"/>
<path d="M145.461 0.0996094V41.0615L593.118 422.27L603.272 412.368L269.975 0.0996094H145.461Z" fill="#EC1D24"/>
<path d="M145.461 332.513L564.93 468.135L570.521 455.102L145.461 223.912V332.513Z" fill="#EC1D24"/>
<path d="M145.461 554.242L556.437 521.295L556.618 507.114L145.461 463.625V554.242Z" fill="#EC1D24"/>
<path d="M1259.62 554.242L848.647 521.295L848.467 507.114L1259.62 463.625V554.242Z" fill="#EC1D24"/>
<path d="M949.728 594.845C949.562 450.625 832.212 325.771 687.467 325.771C542.619 325.771 424.31 445.633 424.31 589.993C424.31 589.993 662.532 514.823 949.728 594.845Z" fill="#EC1D24"/>
<path d="M283.954 967.186C307.421 957.26 331.317 948.23 355.607 940.132V1015.95C331.245 1024.84 307.349 1034.69 283.954 1045.52C221.759 1074.29 163.219 1109.94 109.801 1151.87H0.243164C82.2144 1074.04 178.695 1011.73 283.954 967.186Z" fill="#1E1B57"/>
<path d="M1354.78 1151.87H1245.22C1199.11 1115.68 1149.2 1084.18 1096.43 1057.74C1073.07 1046.02 1049.17 1035.3 1024.78 1025.63C916.258 982.522 798.21 959.517 677.474 959.517C573.505 959.517 471.471 976.574 375.886 1008.86V933.574C472.116 903.618 573.935 887.852 677.474 887.852C797.565 887.852 915.291 909.029 1024.78 948.983C1049.07 957.833 1072.96 967.652 1096.43 978.33C1191.84 1021.87 1279.43 1080.31 1354.78 1151.87Z" fill="#1E1B57"/>
<path d="M1071.06 803.563V813.628L1046.5 870.961C1030.97 864.287 1015.27 858.05 999.411 852.306C897.292 815.051 789.211 796.177 677.466 796.177C557.735 796.177 441.832 817.95 332.931 860.895L306.622 794.208C423.946 747.981 548.71 724.512 677.466 724.512C788.774 724.512 896.745 741.908 999.411 776.373C1023.59 784.47 1047.49 793.551 1071.06 803.563Z" fill="#1E1B57"/>
<path d="M1071.06 660.67V670.736L1046.5 728.068C1030.97 721.394 1015.27 715.157 999.41 709.413C897.291 672.158 789.21 653.284 677.465 653.284C557.734 653.284 441.831 675.058 332.93 718.002L306.621 651.315C423.945 605.033 548.709 581.619 677.465 581.619C788.773 581.619 896.744 599.016 999.41 633.481C1023.59 641.577 1047.49 650.659 1071.06 660.67Z" fill="#1E1B57"/>
<path d="M1071.06 579.486V1057.73C1047.71 1046.02 1023.81 1035.3 999.41 1025.67V579.486H1071.06Z" fill="#1E1B57"/>
<path d="M1061.98 1047.02C1065.03 1048.53 1068.07 1050.07 1071.08 1051.65V1151.88H999.427V1018.64C1020.56 1027.24 1041.56 1036.81 1061.98 1047.02Z" fill="#1E1B57"/>
<path d="M355.614 579.488V1015.97C331.252 1024.86 307.356 1034.71 283.961 1045.53V579.488H355.614Z" fill="#1E1B57"/>
<path d="M292.487 1063.99C312.98 1054.49 334.19 1045.64 355.614 1037.65V1151.88H283.961V1068C286.791 1066.64 289.621 1065.31 292.487 1063.99Z" fill="#1E1B57"/>
<path d="M1244.19 754.879C1244.19 754.879 1200.52 724.931 1172.99 710.758V848.615C1172.99 879.302 1155.09 907.656 1127.39 920.846L1020.07 971.961L1050.87 1036.67L1158.2 985.552C1210.71 960.541 1244.64 906.791 1244.64 848.615V755.58" fill="#1E1B57"/>
<path d="M355.591 579.542L343.538 563.405C341.842 561.135 341.872 557.932 343.801 555.858C350.348 548.819 353.907 539 352.194 528.26C350.034 514.724 339.072 503.487 325.571 501.136C304.741 497.508 286.658 513.445 286.658 533.606C286.658 542.371 290.139 550.262 295.736 556.145C297.729 558.24 297.778 561.512 296.023 563.809L284 579.542H355.591Z" fill="#1E1B57"/>
<path d="M1071.05 579.542L1059 563.405C1057.3 561.135 1057.33 557.932 1059.26 555.858C1065.81 548.819 1069.37 539 1067.65 528.26C1065.49 514.724 1054.53 503.487 1041.03 501.136C1020.2 497.508 1002.12 513.445 1002.12 533.606C1002.12 542.371 1005.6 550.262 1011.2 556.145C1013.19 558.24 1013.24 561.512 1011.48 563.809L999.459 579.542H1071.05Z" fill="#1E1B57"/>
<path d="M722.444 612.676H657.956V941.88H722.444V612.676Z" fill="#1E1B57"/>
<path d="M533.575 776.018H469.087V931.044H533.575V776.018Z" fill="#1E1B57"/>
<path d="M910.224 776.018H845.736V931.044H910.224V776.018Z" fill="#1E1B57"/>
</g>
<defs>
<clipPath id="clip0_410_2">
<rect width="1354" height="1151" fill="white"/>
</clipPath>
</defs>
</svg>
