<svg width="694" height="625" viewBox="0 0 694 625" fill="none" xmlns="http://www.w3.org/2000/svg">
<g clip-path="url(#clip0_412_31)">
<path d="M179.508 589.769C180.158 589.841 180.953 589.841 181.604 589.841C182.977 589.841 184.495 589.841 185.796 589.479C186.808 589.19 189.339 588.251 190.423 588.251C193.025 588.251 198.952 589.914 198.952 593.166C198.952 596.274 191.362 597.214 189.121 597.214C186.013 597.214 179.508 593.456 179.508 589.914V589.769ZM205.53 614.346C203.651 615.718 201.916 617.165 200.181 618.683C198.446 620.057 193.097 625.478 191.362 625.478C190.711 625.478 190.061 625.26 189.483 625.043C186.591 623.814 186.158 622.225 186.085 619.333C186.013 617.237 185.869 615.141 185.507 613.117C187.025 613.695 188.543 614.057 190.133 614.129C202.639 607.984 221.144 590.129 230.613 579.793C229.601 592.66 215.433 607.045 205.53 614.346ZM185.796 571.552C187.604 572.276 189.483 572.926 191.362 573.215C195.265 573.938 203.578 573.865 203.578 579.505C203.578 581.384 201.771 583.769 199.748 583.769C198.807 583.769 196.206 582.83 195.338 582.54C191.507 580.661 185.796 576.323 185.796 571.552ZM223.673 581.094C223.673 582.033 222.879 584.059 221.722 584.059C220.421 584.059 219.192 583.624 218.324 582.757C215.361 579.72 213.987 575.384 211.096 572.204C215.939 572.565 223.673 575.239 223.673 581.094ZM229.89 576.178C229.89 576.54 229.89 576.974 229.818 577.264C229.24 577.986 228.517 578.709 227.577 578.709C223.167 578.709 221.36 571.119 218.975 568.444C223.24 568.951 229.89 570.757 229.89 576.178Z" fill="#99999A"/>
<path d="M252.375 615.068C254.037 615.068 255.772 615.718 257.362 615.718C258.229 615.718 263.362 614.057 264.735 613.695C266.904 613.117 269.073 612.755 271.241 612.466C271.386 609.72 271.531 606.9 271.531 604.08C271.531 600.105 271.096 598.804 270.735 598.297C269.217 598.587 267.844 598.949 266.398 599.382C263.506 598.587 260.398 594.612 259.097 591.937C260.687 592.082 262.133 592.37 263.723 592.732C266.76 592.299 269.867 591.43 272.759 590.491C275.94 589.407 278.759 588.033 282.228 588.033C284.253 588.033 289.456 589.986 289.456 592.442C287.939 596.274 280.276 595.552 277.024 596.708C278.036 597.72 279.482 598.515 279.77 600.105C277.891 602.708 277.747 608.346 277.602 611.526C279.482 611.092 285.409 610.08 287.072 610.08C290.83 610.08 298.709 613.767 298.709 618.176C298.709 619.912 297.191 620.851 295.529 620.851C294.878 620.851 292.855 620.057 292.059 619.839C287.505 618.61 286.349 618.321 281.578 618.321C280.349 618.321 279.265 618.248 278.108 618.248C272.47 618.248 266.615 619.188 261.41 621.285C260.832 621.501 258.664 623.019 258.374 622.947C255.916 622.152 252.375 617.743 252.375 615.213V615.068Z" fill="#99999A"/>
<path d="M331.819 589.479C331.385 587.889 329.506 586.299 329.29 585.648C331.024 584.781 331.674 582.757 333.41 581.963C340.927 583.769 342.083 584.347 342.373 586.66C340.638 589.552 339.12 595.335 337.747 598.804C333.481 609.648 327.699 616.08 315.482 616.659C323.29 609.43 329.578 599.961 331.819 589.479ZM375.551 610.08C375.551 612.466 373.962 615.43 371.287 615.43C366.154 615.43 360.878 600.973 359.144 596.925C357.336 593.094 354.95 589.045 349.167 582.251C364.13 583.986 375.551 599.166 375.551 610.08ZM363.336 576.685C363.336 573.938 368.107 571.986 370.275 571.986C374.756 571.986 378.009 574.372 378.009 579.07C378.009 583.769 375.335 586.589 370.637 586.589C367.022 586.589 364.347 583.118 364.347 579.72V579.07C363.698 578.421 363.336 577.552 363.336 576.685ZM369.768 576.54C368.179 576.54 367.672 578.131 366.66 579.143C367.167 580.804 368.684 581.528 370.275 581.528C371.864 581.528 372.66 580.444 373.093 579.143C372.66 577.192 371.793 576.54 369.768 576.54Z" fill="#99999A"/>
<path d="M405.842 576.179C410.613 576.685 414.732 575.746 418.129 579.65C418.419 580.3 418.564 581.094 418.564 581.963C418.564 584.131 417.118 585.793 415.022 586.3C409.673 585.793 400.276 581.094 399.914 574.951C401.867 575.529 403.89 575.963 405.842 576.179ZM400.71 610.875C402.155 611.527 403.746 611.961 405.336 612.033C416.468 606.611 435.84 587.744 444.659 578.204C444.153 582.685 442.779 586.877 440.611 590.853C430.924 607.84 412.203 620.852 407.793 623.454C407.577 623.599 407.071 623.599 406.853 623.599C405.697 623.599 402.589 622.803 402.372 621.429C401.288 619.984 401.071 613.045 400.71 610.875Z" fill="#99999A"/>
<path d="M468.373 598.298C476.54 590.057 482.035 584.131 488.829 574.589C488.467 572.638 487.238 571.119 486.95 569.456C489.769 570.035 492.732 570.108 495.624 570.757C497.07 571.624 497.215 573.865 497.215 575.384C497.792 575.601 498.444 575.673 499.021 575.673C500.757 575.673 502.418 575.239 504.154 575.239C506.467 575.239 513.984 580.01 513.984 582.323C512.827 584.636 510.876 584.853 510.514 585.575C509.502 587.166 508.78 589.262 507.911 590.998C506.177 594.54 504.369 598.01 502.273 601.407C489.479 622.73 482.179 624.466 471.264 624.466C470.324 624.466 469.457 624.466 468.589 624.393C481.455 617.164 495.986 597.213 500.757 583.19C499.093 581.818 497.215 580.589 495.479 579.505C494.033 582.033 492.588 584.491 490.78 586.804C485.792 593.383 477.408 598.298 469.023 598.298H468.373Z" fill="#99999A"/>
<path d="M23.0414 537.608H-0.499023V515.425H23.0414C33.5224 515.425 38.761 508.055 38.761 493.316V463.812H15.1428V441.629H38.761V434.309H62.2236V441.629H69.9668V463.812H62.2236V493.464C62.2236 522.893 49.1642 537.608 23.0414 537.608Z" fill="#FF4B2B"/>
<path d="M89.9409 508.253V463.812H82.2773V441.629H89.9409V434.309H113.404V441.629H152.508V463.812H113.404V478.675H152.508V500.858H113.404V508.179C113.404 513.01 116.011 515.425 121.224 515.425H152.508V537.608H121.224C100.369 537.608 89.9409 527.823 89.9409 508.253Z" fill="#FF4B2B"/>
<path d="M244.867 441.629V463.738C245.025 493.02 232.014 507.686 205.84 507.735H197.786L197.238 508.253C194.944 522.499 187.228 532.333 174.088 537.756L166.268 515.499C171.741 511.802 174.479 506.158 174.479 498.566V463.812H166.345V441.629H174.479V434.309H197.942V441.629H244.867ZM198.019 485.922H205.528C216.164 485.922 221.482 478.577 221.482 463.886L197.942 463.812L198.019 485.922Z" fill="#FF4B2B"/>
<path d="M266.603 537.608L266.525 537.756V537.608L266.212 537.756L258.313 515.499C263.319 512.147 266.057 507.217 266.525 500.71V463.812H258.469V441.629H266.603V434.309H290.065V441.629H334.02V537.46L310.79 544.854L310.557 500.489H290.065C289.597 518.826 281.776 531.2 266.603 537.608ZM289.91 478.601H310.557V463.738H289.91V478.601Z" fill="#FF4B2B"/>
<path d="M393.686 471.798L393.608 441.629L417.226 441.555V537.756L393.763 545.742L393.686 512.468C394.05 505.665 391.416 499.873 385.785 495.091L370.378 481.633L370.301 537.682L346.838 537.756V441.186H370.458V451.538L393.686 471.798Z" fill="#FF4B2B"/>
<path d="M438.884 508.253V463.812H431.221V441.629H438.884V434.309H462.347V441.629H509.272V463.812H462.347V508.179C462.347 513.01 464.954 515.425 470.168 515.425H485.81V478.601H509.272V537.608H470.168C449.312 537.608 438.884 527.823 438.884 508.253Z" fill="#FF4B2B"/>
<path d="M601.554 487.246C565.035 486.501 554.628 496.006 554.628 496.006V537.682L531.165 537.756V501.672L526.551 502.929L519.903 481.633L531.165 478.454V441.186H554.55V471.946L555.254 471.724C563.7 469.358 571.313 468.692 578.091 469.728L578.169 441.555H601.554V487.246Z" fill="#FF4B2B"/>
<path d="M639.166 441.111V500.784C639.113 510.693 644.353 515.647 654.885 515.647C665.158 515.647 670.345 510.693 670.449 500.784L670.527 479.489V441.555H693.99V538.126L670.527 538.052V535.907C665.992 537.14 660.803 537.781 654.965 537.83C628.738 537.781 615.677 525.506 615.781 501.006V441.259L639.166 441.111Z" fill="#FF4B2B"/>
<path d="M639.168 441.111H609.533V454.904H639.168V441.111Z" fill="#FF4B2B"/>
<path d="M562.984 489.619L584.721 536.979L614.239 537.608L585.35 483.519L562.984 489.619Z" fill="#FF4B2B"/>
<path d="M397.287 161.649L546.266 117.619V80.0068L395.483 157.136L397.287 161.649Z" fill="#EC1D24"/>
<path d="M505.701 -0.00390625L384.658 142.18L388.05 145.66L546.266 17.708V-0.00390625H505.701Z" fill="#EC1D24"/>
<path d="M411.754 -0.00390625L368.941 132.494L373.408 134.41L446.507 -0.00390625H411.754Z" fill="#EC1D24"/>
<path d="M340.335 -0.00390625L350.721 129.584L355.582 129.645L369.314 -0.00390625H340.335Z" fill="#EC1D24"/>
<path d="M264.312 -0.00390625L332.777 133.843L337.29 132.04L298.263 -0.00390625H264.312Z" fill="#EC1D24"/>
<path d="M164.387 -0.00390625V14.0333L317.821 144.669L321.301 141.276L207.064 -0.00390625H164.387Z" fill="#EC1D24"/>
<path d="M164.387 113.91L308.16 160.386L310.076 155.92L164.387 76.6934V113.91Z" fill="#EC1D24"/>
<path d="M164.387 189.895L305.249 178.605L305.311 173.745L164.387 158.842V189.895Z" fill="#EC1D24"/>
<path d="M546.266 189.895L405.404 178.605L405.342 173.745L546.266 158.842V189.895Z" fill="#EC1D24"/>
<path d="M440.049 203.809C439.992 154.386 399.77 111.6 350.159 111.6C300.513 111.6 259.962 152.675 259.962 202.146C259.962 202.146 341.613 176.386 440.049 203.809Z" fill="#EC1D24"/>
<path d="M211.855 331.406C219.898 328.004 228.089 324.91 236.414 322.135V348.118C228.064 351.164 219.874 354.54 211.855 358.249C190.538 368.109 170.473 380.328 152.164 394.695H114.613C142.709 368.023 175.778 346.669 211.855 331.406Z" fill="#1E1B57"/>
<path d="M578.879 394.695H541.328C525.524 382.292 508.419 371.498 490.331 362.436C482.325 358.421 474.134 354.749 465.772 351.434C428.577 336.661 388.116 328.778 346.734 328.778C311.098 328.778 276.126 334.623 243.364 345.687V319.888C276.347 309.622 311.246 304.219 346.734 304.219C387.895 304.219 428.245 311.476 465.772 325.168C474.097 328.201 482.288 331.565 490.331 335.225C523.031 350.144 553.055 370.172 578.879 394.695Z" fill="#1E1B57"/>
<path d="M481.636 275.334V278.783L473.219 298.431C467.895 296.143 462.514 294.006 457.077 292.038C422.076 279.271 385.031 272.803 346.731 272.803C305.693 272.803 265.967 280.265 228.641 294.981L219.624 272.128C259.837 256.287 302.599 248.244 346.731 248.244C384.881 248.244 421.889 254.206 457.077 266.017C465.364 268.791 473.556 271.903 481.636 275.334Z" fill="#1E1B57"/>
<path d="M481.636 226.366V229.816L473.219 249.463C467.895 247.176 462.514 245.038 457.077 243.07C422.076 230.303 385.031 223.835 346.731 223.835C305.693 223.835 265.967 231.297 228.641 246.013L219.624 223.16C259.837 207.3 302.599 199.276 346.731 199.276C384.881 199.276 421.889 205.238 457.077 217.049C465.364 219.823 473.556 222.935 481.636 226.366Z" fill="#1E1B57"/>
<path d="M481.637 198.546V362.435C473.632 358.423 465.439 354.748 457.078 351.449V198.546H481.637Z" fill="#1E1B57"/>
<path d="M478.524 358.765C479.568 359.281 480.612 359.809 481.643 360.349V394.7H457.084V349.04C464.329 351.987 471.525 355.266 478.524 358.765Z" fill="#1E1B57"/>
<path d="M236.417 198.547V348.124C228.066 351.17 219.876 354.546 211.857 358.255V198.547H236.417Z" fill="#1E1B57"/>
<path d="M214.78 364.578C221.804 361.324 229.073 358.291 236.417 355.553V394.7H211.857V365.953C212.828 365.487 213.797 365.033 214.78 364.578Z" fill="#1E1B57"/>
<path d="M540.977 258.651C540.977 258.651 526.008 248.388 516.571 243.531V290.773C516.571 301.29 510.436 311.006 500.943 315.526L464.158 333.043L474.716 355.217L511.5 337.7C529.5 329.129 541.13 310.71 541.13 290.773V258.891" fill="#1E1B57"/>
<path d="M236.409 198.565L232.278 193.035C231.696 192.257 231.707 191.159 232.368 190.449C234.612 188.037 235.832 184.672 235.245 180.991C234.504 176.352 230.747 172.502 226.119 171.696C218.98 170.453 212.782 175.914 212.782 182.823C212.782 185.827 213.975 188.531 215.894 190.547C216.577 191.265 216.594 192.386 215.992 193.173L211.871 198.565H236.409Z" fill="#1E1B57"/>
<path d="M481.631 198.565L477.5 193.035C476.919 192.257 476.929 191.159 477.591 190.449C479.834 188.037 481.055 184.672 480.467 180.991C479.727 176.352 475.97 172.502 471.342 171.696C464.203 170.453 458.005 175.914 458.005 182.823C458.005 185.827 459.198 188.531 461.116 190.547C461.799 191.265 461.816 192.386 461.215 193.173L457.094 198.565H481.631Z" fill="#1E1B57"/>
<path d="M362.148 209.92H340.045V322.735H362.148V209.92Z" fill="#1E1B57"/>
<path d="M297.413 265.896H275.31V319.021H297.413V265.896Z" fill="#1E1B57"/>
<path d="M426.508 265.896H404.405V319.021H426.508V265.896Z" fill="#1E1B57"/>
</g>
<defs>
<clipPath id="clip0_412_31">
<rect width="694" height="625" fill="white"/>
</clipPath>
</defs>
</svg>
