<?xml version="1.0" encoding="UTF-8"?>
<svg id="Layer_1" data-name="Layer 1" xmlns="http://www.w3.org/2000/svg" viewBox="0 0 1013.49154 1069.47348">
  <defs>
    <style>
      .cls-1 {
        fill: #1e1b57;
      }

      .cls-2 {
        fill: #ec1d24;
      }
    </style>
  </defs>
  <g>
    <g>
      <polygon class="cls-2" points="577.86047 484.50555 787.48542 422.55173 787.48542 369.62877 575.32263 478.15538 577.86047 484.50555"/>
      <polygon class="cls-2" points="730.40751 257.04766 560.09114 457.11163 564.86326 462.00763 787.48542 281.96958 787.48542 257.04766 730.40751 257.04766"/>
      <polygon class="cls-2" points="598.21674 257.04766 537.97602 443.48164 544.26146 446.17795 647.11643 257.04766 598.21674 257.04766"/>
      <polygon class="cls-2" points="497.72439 257.04766 512.33872 439.38695 519.17772 439.474 538.50055 257.04766 497.72439 257.04766"/>
      <polygon class="cls-2" points="390.75353 257.04766 487.0898 445.37999 493.43998 442.84327 438.52603 257.04766 390.75353 257.04766"/>
      <polygon class="cls-2" points="250.1524 257.04766 250.1524 276.79904 466.04606 460.61372 470.94317 455.83937 310.20229 257.04766 250.1524 257.04766"/>
      <polygon class="cls-2" points="250.1524 417.3332 452.45178 482.72884 455.14809 476.44451 250.1524 364.96714 250.1524 417.3332"/>
      <polygon class="cls-2" points="250.1524 524.24939 448.35597 508.36279 448.44302 501.52491 250.1524 480.55483 250.1524 524.24939"/>
      <polygon class="cls-2" points="787.48542 524.24939 589.28186 508.36279 589.19481 501.52491 787.48542 480.55483 787.48542 524.24939"/>
    </g>
    <path class="cls-2" d="M638.03004,543.82765c-.07997-69.54138-56.67499-129.74508-126.48198-129.74508-69.85619,0-126.91407,57.79658-126.91407,127.40553,0,0,114.88868-36.24624,253.39605,2.33955Z"/>
  </g>
  <g>
    <path class="cls-1" d="M316.94403,723.3663c11.31735-4.78611,22.84192-9.14027,34.55653-13.04507v36.56077c-11.7492,4.28497-23.27377,9.03649-34.55653,14.25456-29.99504,13.8745-58.22766,31.06628-83.98962,51.28187h-52.83696c39.53268-37.52834,86.06303-67.57526,136.82658-89.05213Z"/>
    <path class="cls-1" d="M833.37408,812.41843h-52.83696c-22.23712-17.451-46.30573-32.63867-71.75657-45.38993-11.26546-5.65003-22.79003-10.81621-34.55653-15.48136-52.33582-20.7858-109.26772-31.87842-167.49549-31.87842-50.14156,0-99.35002,8.22447-145.44841,23.7922v-36.30165c46.40939-14.4446,95.51419-22.04708,145.44841-22.04708,57.91677,0,114.69312,10.21151,167.49549,29.47671,11.71461,4.26779,23.23929,9.00201,34.55653,14.1509,46.01203,20.99313,88.2574,49.17398,124.59354,83.67862Z"/>
    <path class="cls-1" d="M696.54683,644.46929v4.85362l-11.84408,27.64515c-7.49151-3.2183-15.06223-6.22553-22.71216-8.99528-49.24929-17.964-101.37394-27.06474-155.26593-27.06474-57.74336,0-113.64017,10.4989-166.16041,31.20624l-12.68823-32.15584c56.58253-22.29017,116.7527-33.60664,178.84864-33.60664,53.68092,0,105.75276,8.38846,155.26593,25.00711,11.65941,3.90418,23.18696,8.283,34.55624,13.11038Z"/>
    <path class="cls-1" d="M696.54683,575.56772v4.85362l-11.84408,27.64499c-7.49151-3.21814-15.06223-6.22537-22.71216-8.99512-49.24929-17.964-101.37394-27.06474-155.26593-27.06474-57.74336,0-113.64017,10.4989-166.16041,31.20624l-12.68823-32.15584c56.58253-22.31657,116.7527-33.60664,178.84864-33.60664,53.68092,0,105.75276,8.38846,155.26593,25.00711,11.65941,3.90402,23.18696,8.283,34.55624,13.11038Z"/>
    <g>
      <path class="cls-1" d="M696.54683,536.42143v230.60395c-11.26366-5.64495-22.79121-10.81527-34.55624-15.45797v-215.14598h34.55624Z"/>
      <path class="cls-1" d="M692.1665,761.8628c1.46882.72566,2.93722,1.46861,4.38875,2.22886v48.33417h-34.55653v-64.24749c10.19401,4.14683,20.31926,8.76009,30.16778,13.68446Z"/>
    </g>
    <path class="cls-1" d="M351.50401,536.42286v210.46653c-11.74931,4.28508-23.27377,9.0366-34.55653,14.25456v-224.7211h34.55653Z"/>
    <path class="cls-1" d="M321.05951,770.0423c9.88312-4.57878,20.11214-8.84646,30.4445-12.69948v55.08301h-34.55653v-40.44837c1.36505-.65658,2.72968-1.29587,4.11202-1.93516Z"/>
    <path class="cls-1" d="M780.04314,620.99381s-21.06223-14.44026-34.34101-21.27458v66.47338c0,14.79704-8.63238,28.46864-21.98929,34.82903l-51.75886,24.64684,14.85526,31.20043,51.75886-24.64684c25.32683-12.06019,41.69056-37.97759,41.69056-66.02946v-44.86076"/>
    <path class="cls-1" d="M351.49282,536.44855l-5.81301-7.78099c-.81761-1.09441-.80316-2.63886.12728-3.63911,3.15705-3.39392,4.87388-8.12874,4.04744-13.30735-1.04164-6.52704-6.3281-11.94515-12.83974-13.07909-10.04557-1.74934-18.76663,5.93561-18.76663,15.65686,0,4.22636,1.67909,8.0314,4.37824,10.86797.96125,1.01019.98499,2.58781.13819,3.69571l-5.79821,7.586h34.52644Z"/>
    <path class="cls-1" d="M696.5401,536.44855l-5.81301-7.78099c-.81761-1.09441-.80316-2.63886.12728-3.63911,3.15705-3.39392,4.87388-8.12874,4.04744-13.30735-1.04164-6.52704-6.3281-11.94515-12.83974-13.07909-10.04557-1.74934-18.76663,5.93561-18.76663,15.65686,0,4.22636,1.67909,8.0314,4.37824,10.86797.96125,1.01019.98499,2.58781.13819,3.69571l-5.79821,7.586h34.52644Z"/>
    <rect class="cls-1" x="497.316" y="552.42566" width="31.10087" height="158.73899"/>
    <rect class="cls-1" x="406.22884" y="631.18779" width="31.10087" height="74.75211"/>
    <rect class="cls-1" x="587.87672" y="631.18779" width="31.10087" height="74.75211"/>
  </g>
</svg>