<svg width="4407" height="1152" viewBox="0 0 4407 1152" fill="none" xmlns="http://www.w3.org/2000/svg">
<g clip-path="url(#clip0_440_2)">
<path d="M679.965 471.818L1114.62 343.334V233.578L674.703 458.649L679.965 471.818Z" fill="#EC1D24"/>
<path d="M996.272 0.0996094L643.12 415.007L653.015 425.161L1114.62 51.7845V0.0996094H996.272Z" fill="#EC1D24"/>
<path d="M722.174 0.0996094L597.265 386.74L610.298 392.332L823.568 0.0996094H722.174Z" fill="#EC1D24"/>
<path d="M513.804 0.0996094L544.107 378.248L558.287 378.429L598.353 0.0996094H513.804Z" fill="#EC1D24"/>
<path d="M291.999 0.0996094L491.753 390.677L504.92 385.416L391.056 0.0996094H291.999Z" fill="#EC1D24"/>
<path d="M0.460938 0.0996094V41.0615L448.118 422.27L458.272 412.368L124.975 0.0996094H0.460938Z" fill="#EC1D24"/>
<path d="M0.460938 332.513L419.93 468.135L425.521 455.102L0.460938 223.912V332.513Z" fill="#EC1D24"/>
<path d="M0.460938 554.242L411.437 521.295L411.618 507.114L0.460938 463.625V554.242Z" fill="#EC1D24"/>
<path d="M1114.62 554.242L703.647 521.295L703.467 507.114L1114.62 463.625V554.242Z" fill="#EC1D24"/>
<path d="M804.728 594.845C804.562 450.625 687.212 325.771 542.467 325.771C397.619 325.771 279.31 445.633 279.31 589.993C279.31 589.993 517.532 514.823 804.728 594.845Z" fill="#EC1D24"/>
<path d="M138.954 967.186C162.421 957.26 186.317 948.23 210.607 940.132V1015.95C186.245 1024.84 162.349 1034.69 138.954 1045.52C76.7591 1074.29 18.2186 1109.94 -35.199 1151.87H-144.757C-62.7856 1074.04 33.6954 1011.73 138.954 967.186Z" fill="#1E1B57"/>
<path d="M1209.78 1151.87H1100.22C1054.11 1115.68 1004.2 1084.18 951.43 1057.74C928.071 1046.02 904.175 1035.3 879.777 1025.63C771.258 982.522 653.21 959.517 532.474 959.517C428.505 959.517 326.471 976.574 230.886 1008.86V933.574C327.116 903.618 428.935 887.852 532.474 887.852C652.565 887.852 770.291 909.029 879.777 948.983C904.067 957.833 927.964 967.652 951.43 978.33C1046.84 1021.87 1134.43 1080.31 1209.78 1151.87Z" fill="#1E1B57"/>
<path d="M926.064 803.563V813.628L901.505 870.961C885.971 864.287 870.273 858.05 854.411 852.306C752.292 815.051 644.211 796.177 532.466 796.177C412.735 796.177 296.832 817.95 187.931 860.895L161.622 794.208C278.946 747.981 403.71 724.512 532.466 724.512C643.774 724.512 751.745 741.908 854.411 776.373C878.587 784.47 902.489 793.551 926.064 803.563Z" fill="#1E1B57"/>
<path d="M926.063 660.67V670.736L901.504 728.068C885.97 721.394 870.272 715.157 854.41 709.413C752.291 672.158 644.21 653.284 532.465 653.284C412.734 653.284 296.831 675.058 187.93 718.002L161.621 651.315C278.945 605.033 403.709 581.619 532.465 581.619C643.773 581.619 751.744 599.016 854.41 633.481C878.586 641.577 902.488 650.659 926.063 660.67Z" fill="#1E1B57"/>
<path d="M926.063 579.486V1057.73C902.707 1046.02 878.805 1035.3 854.41 1025.67V579.486H926.063Z" fill="#1E1B57"/>
<path d="M916.98 1047.02C920.025 1048.53 923.07 1050.07 926.08 1051.65V1151.88H854.427V1018.64C875.564 1027.24 896.559 1036.81 916.98 1047.02Z" fill="#1E1B57"/>
<path d="M210.614 579.488V1015.97C186.252 1024.86 162.356 1034.71 138.961 1045.53V579.488H210.614Z" fill="#1E1B57"/>
<path d="M147.487 1063.99C167.98 1054.49 189.19 1045.64 210.614 1037.65V1151.88H138.961V1068C141.791 1066.64 144.621 1065.31 147.487 1063.99Z" fill="#1E1B57"/>
<path d="M1099.19 754.879C1099.19 754.879 1055.52 724.931 1027.99 710.758V848.615C1027.99 879.302 1010.09 907.656 982.393 920.846L875.07 971.961L905.873 1036.67L1013.2 985.552C1065.71 960.541 1099.64 906.791 1099.64 848.615V755.58" fill="#1E1B57"/>
<path d="M210.591 579.542L198.538 563.405C196.842 561.135 196.872 557.932 198.801 555.858C205.348 548.819 208.907 539 207.194 528.26C205.034 514.724 194.072 503.487 180.571 501.136C159.741 497.508 141.658 513.445 141.658 533.606C141.658 542.371 145.139 550.262 150.736 556.145C152.729 558.24 152.778 561.512 151.023 563.809L139 579.542H210.591Z" fill="#1E1B57"/>
<path d="M926.05 579.542L913.997 563.405C912.301 561.135 912.331 557.932 914.26 555.858C920.807 548.819 924.366 539 922.653 528.26C920.493 514.724 909.531 503.487 896.029 501.136C875.2 497.508 857.117 513.445 857.117 533.606C857.117 542.371 860.598 550.262 866.195 556.145C868.188 558.24 868.237 561.512 866.482 563.809L854.459 579.542H926.05Z" fill="#1E1B57"/>
<path d="M577.444 612.676H512.956V941.88H577.444V612.676Z" fill="#1E1B57"/>
<path d="M388.575 776.018H324.087V931.044H388.575V776.018Z" fill="#1E1B57"/>
<path d="M765.224 776.018H700.736V931.044H765.224V776.018Z" fill="#1E1B57"/>
</g>
<g clip-path="url(#clip1_440_2)">
<path d="M2099.94 866.437C2102.85 866.787 2106.42 866.787 2109.34 866.787C2115.5 866.787 2122.3 866.787 2128.14 865.033C2132.68 863.629 2144.02 859.075 2148.88 859.075C2160.55 859.075 2187.13 867.138 2187.13 882.907C2187.13 897.974 2153.1 902.529 2143.05 902.529C2129.11 902.529 2099.94 884.311 2099.94 867.138V866.437ZM2216.63 985.591C2208.2 992.244 2200.42 999.254 2192.64 1006.62C2184.86 1013.28 2160.88 1039.56 2153.1 1039.56C2150.18 1039.56 2147.26 1038.5 2144.67 1037.45C2131.7 1031.49 2129.76 1023.79 2129.43 1009.77C2129.11 999.605 2128.46 989.444 2126.84 979.633C2133.65 982.433 2140.46 984.187 2147.59 984.538C2203.66 954.748 2286.64 868.184 2329.1 818.07C2324.56 880.451 2261.04 950.194 2216.63 985.591ZM2128.14 778.118C2136.24 781.627 2144.67 784.778 2153.1 786.181C2170.6 789.683 2207.88 789.332 2207.88 816.674C2207.88 825.783 2199.77 837.348 2190.7 837.348C2186.48 837.348 2174.81 832.793 2170.92 831.39C2153.75 822.281 2128.14 801.248 2128.14 778.118ZM2297.98 824.379C2297.98 828.933 2294.42 838.752 2289.24 838.752C2283.4 838.752 2277.89 836.646 2274 832.443C2260.71 817.719 2254.55 796.694 2241.59 781.276C2263.3 783.031 2297.98 795.992 2297.98 824.379ZM2325.86 800.547C2325.86 802.301 2325.86 804.407 2325.54 805.81C2322.95 809.312 2319.7 812.814 2315.49 812.814C2295.72 812.814 2287.61 776.02 2276.92 763.051C2296.04 765.507 2325.86 774.265 2325.86 800.547Z" fill="#99999A"/>
<path d="M2426.69 989.091C2434.14 989.091 2441.92 992.242 2449.05 992.242C2452.94 992.242 2475.96 984.186 2482.11 982.431C2491.84 979.631 2501.56 977.877 2511.29 976.473C2511.93 963.161 2512.58 949.49 2512.58 935.819C2512.58 916.549 2510.64 910.24 2509.02 907.783C2502.21 909.187 2496.05 910.941 2489.57 913.039C2476.6 909.187 2462.67 889.916 2456.83 876.947C2463.96 877.649 2470.45 879.046 2477.58 880.8C2491.19 878.702 2505.13 874.491 2518.09 869.936C2532.35 864.68 2545 858.021 2560.55 858.021C2569.63 858.021 2592.97 867.488 2592.97 879.396C2586.16 897.973 2551.8 894.471 2537.22 900.078C2541.75 904.983 2548.24 908.836 2549.53 916.549C2541.1 929.167 2540.46 956.501 2539.81 971.919C2548.24 969.813 2574.82 964.908 2582.27 964.908C2599.13 964.908 2634.46 982.782 2634.46 1004.16C2634.46 1012.57 2627.65 1017.13 2620.2 1017.13C2617.28 1017.13 2608.2 1013.27 2604.64 1012.22C2584.22 1006.26 2579.03 1004.86 2557.64 1004.86C2552.13 1004.86 2547.26 1004.51 2542.08 1004.51C2516.8 1004.51 2490.54 1009.06 2467.2 1019.23C2464.61 1020.28 2454.89 1027.64 2453.59 1027.29C2442.57 1023.44 2426.69 1002.06 2426.69 989.793V989.091Z" fill="#99999A"/>
<path d="M2782.93 865.032C2780.98 857.319 2772.55 849.615 2771.58 846.456C2779.36 842.253 2782.28 832.442 2790.06 828.59C2823.77 837.347 2828.95 840.147 2830.25 851.361C2822.47 865.383 2815.67 893.419 2809.51 910.241C2790.38 962.811 2764.45 993.998 2709.67 996.805C2744.68 961.758 2772.88 915.848 2782.93 865.032ZM2979.03 964.909C2979.03 976.474 2971.9 990.847 2959.91 990.847C2936.89 990.847 2913.23 920.753 2905.45 901.132C2897.35 882.556 2886.65 862.927 2860.72 829.986C2927.81 838.4 2979.03 911.995 2979.03 964.909ZM2924.25 803.002C2924.25 789.682 2945.65 780.223 2955.37 780.223C2975.46 780.223 2990.05 791.788 2990.05 814.568C2990.05 837.347 2978.06 851.018 2956.99 851.018C2940.78 851.018 2928.79 834.189 2928.79 817.718V814.568C2925.87 811.417 2924.25 807.206 2924.25 803.002ZM2953.1 802.3C2945.97 802.3 2943.7 810.013 2939.16 814.919C2941.43 822.975 2948.23 826.484 2955.37 826.484C2962.49 826.484 2966.06 821.228 2968.01 814.919C2966.06 805.459 2962.18 802.3 2953.1 802.3Z" fill="#99999A"/>
<path d="M3114.85 800.547C3136.25 803.004 3154.72 798.45 3169.95 817.377C3171.25 820.527 3171.9 824.38 3171.9 828.591C3171.9 839.103 3165.42 847.159 3156.02 849.616C3132.04 847.159 3089.9 824.38 3088.27 794.597C3097.03 797.396 3106.1 799.502 3114.85 800.547ZM3091.84 968.763C3098.32 971.921 3105.46 974.027 3112.59 974.377C3162.5 948.089 3249.37 856.619 3288.92 810.366C3286.65 832.093 3280.49 852.416 3270.76 871.694C3227.33 954.047 3143.38 1017.13 3123.6 1029.75C3122.64 1030.45 3120.37 1030.45 3119.39 1030.45C3114.21 1030.45 3100.27 1026.59 3099.3 1019.93C3094.43 1012.93 3093.46 979.283 3091.84 968.763Z" fill="#99999A"/>
<path d="M3395.25 907.785C3431.88 867.833 3456.51 839.103 3486.98 792.841C3485.36 783.382 3479.85 776.02 3478.56 767.956C3491.2 770.763 3504.48 771.114 3517.45 774.265C3523.94 778.469 3524.58 789.332 3524.58 796.694C3527.17 797.747 3530.1 798.098 3532.68 798.098C3540.47 798.098 3547.92 795.992 3555.7 795.992C3566.07 795.992 3599.78 819.122 3599.78 830.337C3594.59 841.551 3585.84 842.604 3584.22 846.106C3579.68 853.819 3576.45 863.98 3572.55 872.395C3564.78 889.567 3556.67 906.389 3547.27 922.859C3489.9 1026.24 3457.16 1034.65 3408.22 1034.65C3404 1034.65 3400.12 1034.65 3396.22 1034.3C3453.92 999.254 3519.07 902.529 3540.47 834.541C3533.01 827.888 3524.58 821.93 3516.8 816.674C3510.32 828.933 3503.84 840.85 3495.73 852.064C3473.36 883.96 3435.77 907.785 3398.17 907.785H3395.25Z" fill="#99999A"/>
<path d="M1398.32 613.551H1292.76V506.005H1398.32C1445.32 506.005 1468.81 470.275 1468.81 398.817V255.775H1362.9V148.229H1468.81V112.738H1574.02V148.229H1608.74V255.775H1574.02V399.534C1574.02 542.212 1515.46 613.551 1398.32 613.551Z" fill="#FF4B2B"/>
<path d="M1698.31 471.231V255.775H1663.94V148.229H1698.31V112.738H1803.52V148.229H1978.87V255.775H1803.52V327.836H1978.87V435.382H1803.52V470.873C1803.52 494.294 1815.21 506.005 1838.59 506.005H1978.87V613.551H1838.59C1745.07 613.551 1698.31 566.111 1698.31 471.231Z" fill="#FF4B2B"/>
<path d="M2393.02 148.229V255.417C2393.73 397.383 2335.39 468.483 2218.02 468.722H2181.9L2179.45 471.231C2169.16 540.3 2134.56 587.979 2075.64 614.268L2040.57 506.363C2065.11 488.439 2077.39 461.074 2077.39 424.269V255.775H2040.92V148.229H2077.39V112.738H2182.6V148.229H2393.02ZM2182.95 362.968H2216.62C2264.31 362.968 2288.16 327.358 2288.16 256.134L2182.6 255.775L2182.95 362.968Z" fill="#FF4B2B"/>
<path d="M2490.49 613.551L2490.14 614.268V613.551L2488.73 614.268L2453.32 506.363C2475.76 490.111 2488.04 466.212 2490.14 434.665V255.775H2454.01V148.229H2490.49V112.738H2595.7V148.229H2792.79V612.834L2688.63 648.683L2687.58 433.59H2595.7C2593.6 522.495 2558.53 582.482 2490.49 613.551ZM2595 327.477H2687.58V255.417H2595V327.477Z" fill="#FF4B2B"/>
<path d="M3060.35 294.493L3060 148.23L3165.9 147.872V614.27L3060.69 652.986L3060.35 491.666C3061.98 458.685 3050.17 430.604 3024.92 407.422L2955.83 342.177L2955.48 613.911L2850.27 614.27V146.079H2956.19V196.267L3060.35 294.493Z" fill="#FF4B2B"/>
<path d="M3263.02 471.231V255.775H3228.66V148.229H3263.02V112.738H3368.23V148.229H3578.65V255.775H3368.23V470.873C3368.23 494.294 3379.92 506.005 3403.3 506.005H3473.44V327.477H3578.65V613.551H3403.3C3309.78 613.551 3263.02 566.111 3263.02 471.231Z" fill="#FF4B2B"/>
<path d="M3992.46 369.39C3828.7 365.775 3782.04 411.86 3782.04 411.86V613.911L3676.83 614.27V439.327L3656.13 445.421L3626.32 342.177L3676.83 326.762V146.079H3781.69V295.21L3784.84 294.135C3822.72 282.663 3856.85 279.437 3887.25 284.456L3887.59 147.871H3992.46V369.39Z" fill="#FF4B2B"/>
<path d="M4161.12 145.719V435.023C4160.88 483.061 4184.38 507.079 4231.6 507.079C4277.67 507.079 4300.93 483.061 4301.4 435.023L4301.74 331.779V147.87H4406.96V616.06L4301.74 615.702V605.305C4281.41 611.28 4258.14 614.387 4231.96 614.626C4114.36 614.387 4055.79 554.878 4056.25 436.099V146.436L4161.12 145.719Z" fill="#FF4B2B"/>
<path d="M4161.13 145.72H4028.24V212.587H4161.13V145.72Z" fill="#FF4B2B"/>
<path d="M3819.51 380.89L3916.98 610.501L4049.34 613.551L3919.8 351.316L3819.51 380.89Z" fill="#FF4B2B"/>
</g>
<defs>
<clipPath id="clip0_440_2">
<rect width="1115" height="1151" fill="white"/>
</clipPath>
<clipPath id="clip1_440_2">
<rect width="3112" height="926" fill="white" transform="translate(1295 112)"/>
</clipPath>
</defs>
</svg>
