<svg width="377" height="235" viewBox="0 0 377 235" fill="none" xmlns="http://www.w3.org/2000/svg">
<rect width="377" height="235" fill="#8C8C8C"/>
<path d="M143.914 188.709C144.083 188.727 144.291 188.727 144.46 188.727C144.818 188.727 145.214 188.727 145.553 188.633C145.817 188.558 146.476 188.313 146.759 188.313C147.437 188.313 148.982 188.746 148.982 189.594C148.982 190.404 147.004 190.649 146.42 190.649C145.609 190.649 143.914 189.669 143.914 188.746V188.709ZM150.696 195.114C150.206 195.472 149.754 195.848 149.302 196.244C148.85 196.602 147.456 198.015 147.004 198.015C146.834 198.015 146.664 197.958 146.514 197.902C145.76 197.582 145.647 197.167 145.628 196.414C145.609 195.867 145.572 195.321 145.478 194.794C145.873 194.944 146.269 195.039 146.683 195.057C149.943 193.456 154.765 188.803 157.233 186.109C156.969 189.462 153.277 193.211 150.696 195.114ZM145.553 183.961C146.024 184.149 146.514 184.319 147.004 184.394C148.021 184.583 150.187 184.564 150.187 186.033C150.187 186.523 149.716 187.145 149.189 187.145C148.944 187.145 148.266 186.9 148.04 186.825C147.041 186.335 145.553 185.204 145.553 183.961ZM155.425 186.448C155.425 186.693 155.218 187.22 154.916 187.22C154.577 187.22 154.257 187.107 154.03 186.881C153.258 186.09 152.9 184.959 152.147 184.131C153.409 184.225 155.425 184.922 155.425 186.448ZM157.045 185.167C157.045 185.261 157.045 185.374 157.026 185.45C156.875 185.638 156.687 185.826 156.442 185.826C155.293 185.826 154.822 183.848 154.2 183.151C155.312 183.283 157.045 183.754 157.045 185.167Z" fill="#D3D3D3"/>
<path d="M162.904 195.302C163.338 195.302 163.79 195.472 164.204 195.472C164.43 195.472 165.768 195.039 166.126 194.944C166.691 194.794 167.256 194.699 167.821 194.624C167.859 193.908 167.897 193.173 167.897 192.439C167.897 191.403 167.783 191.063 167.689 190.931C167.294 191.007 166.936 191.101 166.559 191.214C165.805 191.007 164.995 189.971 164.656 189.274C165.071 189.312 165.448 189.387 165.862 189.481C166.653 189.368 167.463 189.142 168.217 188.897C169.046 188.614 169.78 188.256 170.685 188.256C171.212 188.256 172.569 188.765 172.569 189.405C172.173 190.404 170.176 190.216 169.328 190.517C169.592 190.781 169.969 190.988 170.044 191.403C169.554 192.081 169.517 193.55 169.479 194.379C169.969 194.266 171.514 194.002 171.947 194.002C172.927 194.002 174.98 194.963 174.98 196.112C174.98 196.565 174.584 196.809 174.151 196.809C173.982 196.809 173.454 196.602 173.247 196.546C172.06 196.225 171.759 196.15 170.515 196.15C170.195 196.15 169.912 196.131 169.611 196.131C168.142 196.131 166.616 196.376 165.259 196.923C165.108 196.979 164.543 197.375 164.468 197.356C163.827 197.149 162.904 195.999 162.904 195.34V195.302Z" fill="#D3D3D3"/>
<path d="M183.61 188.633C183.497 188.219 183.007 187.805 182.951 187.635C183.403 187.409 183.572 186.881 184.025 186.674C185.984 187.145 186.285 187.296 186.361 187.898C185.909 188.652 185.513 190.159 185.155 191.064C184.043 193.89 182.536 195.566 179.353 195.717C181.387 193.833 183.026 191.365 183.61 188.633ZM195.008 194.002C195.008 194.624 194.594 195.397 193.896 195.397C192.559 195.397 191.184 191.629 190.732 190.574C190.26 189.575 189.639 188.52 188.132 186.749C192.031 187.202 195.008 191.158 195.008 194.002ZM191.824 185.299C191.824 184.583 193.068 184.074 193.633 184.074C194.801 184.074 195.648 184.696 195.648 185.921C195.648 187.145 194.952 187.88 193.727 187.88C192.785 187.88 192.088 186.975 192.088 186.09V185.921C191.918 185.751 191.824 185.525 191.824 185.299ZM193.501 185.261C193.086 185.261 192.954 185.676 192.691 185.939C192.823 186.372 193.218 186.561 193.633 186.561C194.047 186.561 194.254 186.279 194.367 185.939C194.254 185.431 194.028 185.261 193.501 185.261Z" fill="#D3D3D3"/>
<path d="M202.901 185.167C204.145 185.299 205.218 185.054 206.104 186.071C206.179 186.241 206.217 186.448 206.217 186.674C206.217 187.239 205.84 187.672 205.294 187.804C203.9 187.672 201.451 186.448 201.356 184.847C201.865 184.997 202.393 185.11 202.901 185.167ZM201.564 194.209C201.94 194.379 202.355 194.492 202.77 194.511C205.671 193.098 210.719 188.181 213.018 185.694C212.886 186.862 212.528 187.955 211.963 188.991C209.438 193.418 204.559 196.809 203.41 197.488C203.354 197.525 203.222 197.525 203.165 197.525C202.864 197.525 202.054 197.318 201.997 196.96C201.714 196.583 201.658 194.775 201.564 194.209Z" fill="#D3D3D3"/>
<path d="M219.199 190.931C221.328 188.784 222.76 187.239 224.531 184.752C224.436 184.244 224.116 183.848 224.041 183.415C224.775 183.565 225.548 183.584 226.301 183.754C226.678 183.98 226.716 184.564 226.716 184.959C226.866 185.016 227.036 185.035 227.187 185.035C227.639 185.035 228.072 184.922 228.525 184.922C229.127 184.922 231.086 186.165 231.086 186.768C230.785 187.371 230.277 187.427 230.182 187.616C229.918 188.03 229.73 188.577 229.504 189.029C229.052 189.952 228.581 190.856 228.034 191.742C224.7 197.299 222.797 197.751 219.953 197.751C219.708 197.751 219.482 197.751 219.255 197.732C222.609 195.848 226.396 190.649 227.639 186.994C227.206 186.636 226.716 186.316 226.264 186.033C225.887 186.692 225.51 187.333 225.039 187.936C223.739 189.651 221.554 190.931 219.369 190.931H219.199Z" fill="#D3D3D3"/>
<path d="M103.135 175.114H97V169.333H103.135C105.867 169.333 107.232 167.412 107.232 163.571V155.881H101.077V150.1H107.232V148.192H113.347V150.1H115.365V155.881H113.347V163.609C113.347 171.279 109.943 175.114 103.135 175.114Z" fill="#D3D3D3"/>
<path d="M120.571 167.463V155.881H118.573V150.1H120.571V148.192H126.685V150.1H136.877V155.881H126.685V159.755H136.877V165.536H126.685V167.444C126.685 168.703 127.365 169.333 128.724 169.333H136.877V175.114H128.724C123.288 175.114 120.571 172.564 120.571 167.463Z" fill="#D3D3D3"/>
<path d="M160.948 150.1V155.862C160.989 163.494 157.598 167.316 150.776 167.329H148.677L148.535 167.463C147.937 171.176 145.926 173.739 142.501 175.153L140.463 169.352C141.889 168.388 142.603 166.917 142.603 164.939V155.881H140.483V150.1H142.603V148.192H148.718V150.1H160.948ZM148.738 161.643H150.695C153.467 161.643 154.853 159.729 154.853 155.9L148.718 155.881L148.738 161.643Z" fill="#D3D3D3"/>
<path d="M166.613 175.114L166.592 175.153V175.114L166.511 175.153L164.452 169.352C165.757 168.478 166.47 167.194 166.592 165.498V155.881H164.493V150.1H166.613V148.192H172.727V150.1H184.183V175.076L178.129 177.003L178.068 165.44H172.727C172.605 170.219 170.567 173.444 166.613 175.114ZM172.687 159.736H178.068V155.862H172.687V159.736Z" fill="#D3D3D3"/>
<path d="M199.734 157.963L199.714 150.1L205.869 150.081V175.153L199.754 177.234L199.734 168.562C199.829 166.789 199.143 165.28 197.675 164.033L193.66 160.526L193.639 175.134L187.524 175.153V149.984H193.68V152.682L199.734 157.963Z" fill="#D3D3D3"/>
<path d="M211.513 167.463V155.881H209.516V150.1H211.513V148.192H217.628V150.1H229.858V155.881H217.628V167.444C217.628 168.703 218.307 169.333 219.666 169.333H223.743V159.736H229.858V175.114H219.666C214.231 175.114 211.513 172.564 211.513 167.463Z" fill="#D3D3D3"/>
<path d="M253.909 161.989C244.391 161.795 241.679 164.272 241.679 164.272V175.134L235.564 175.153V165.749L234.361 166.076L232.629 160.526L235.564 159.697V149.984H241.659V158.001L241.842 157.943C244.043 157.327 246.027 157.153 247.794 157.423L247.814 150.081H253.909V161.989Z" fill="#D3D3D3"/>
<path d="M263.712 149.965V165.517C263.698 168.099 265.064 169.391 267.809 169.391C270.486 169.391 271.838 168.099 271.865 165.517L271.886 159.967V150.08H278V175.249L271.886 175.23V174.671C270.704 174.992 269.351 175.159 267.83 175.172C260.994 175.159 257.59 171.96 257.617 165.575V150.003L263.712 149.965Z" fill="#D3D3D3"/>
<path d="M263.712 149.965H255.988V153.559H263.712V149.965Z" fill="#D3D3D3"/>
<path d="M243.857 162.607L249.522 174.951L257.216 175.115L249.686 161.018L243.857 162.607Z" fill="#D3D3D3"/>
</svg>
